<svg width="32" height="32" viewBox="0 0 32 32" fill="none" xmlns="http://www.w3.org/2000/svg">
<path fill-rule="evenodd" clip-rule="evenodd" d="M15.121 11.6845L15.0789 11.6849C15.0277 11.6855 14.9764 11.6857 14.9252 11.6859C14.8794 11.6859 14.8334 11.6859 14.7876 11.6861L14.6748 11.6863L14.4607 11.6867L14.3229 11.6871C13.7351 11.6884 13.147 11.6898 12.5591 11.6912C12.4628 11.6916 12.3666 11.6918 12.2703 11.692L12.2121 11.6922C11.9017 11.6931 11.5912 11.6937 11.2809 11.6943L11.2791 11.6943C10.9579 11.6949 10.6365 11.6957 10.3153 11.6967L10.1178 11.6972C9.98599 11.6975 9.85414 11.6978 9.72237 11.698C9.58593 11.6982 9.44929 11.6986 9.31285 11.699C9.23386 11.6994 9.15467 11.6996 9.07568 11.6996L9.03013 11.6996C8.77707 11.6997 8.52387 11.6999 8.2712 11.7182L8.21006 11.7231C8.11263 11.7304 8.0218 11.7374 7.93097 11.7774C7.66391 11.9198 7.66391 11.9198 7.41218 12.6207L7.41218 12.6207C7.34309 12.8144 7.26992 13.0059 7.19539 13.1971C7.14163 13.3347 7.08845 13.4725 7.03624 13.6106L7.02948 13.6285L7.02947 13.6285C7.00009 13.706 6.97066 13.7837 6.94055 13.8609L6.9194 13.9148L6.87612 14.0254C6.83691 14.1252 6.7981 14.2254 6.76122 14.3264L6.7581 14.3351L6.7356 14.3981L6.68436 14.5407L6.68009 14.553C6.64028 14.6671 6.6016 14.7779 6.53958 14.8814C6.51085 14.9259 6.49047 14.9628 6.46971 15.0126L6.45631 15.0535H6.4175C6.35539 15.1198 6.29192 15.1735 6.21972 15.2274C6.02351 15.3729 5.82981 15.5198 5.6627 15.7021L5.62175 15.7474C5.502 15.876 5.39331 15.9985 5.31665 16.1615L5.29181 16.2169C5.15905 16.4842 5.15012 16.7475 5.15207 17.0429L5.15265 17.1604C5.15304 17.3049 5.15401 17.4494 5.15517 17.594L5.15653 17.738C5.15847 17.9973 5.1608 18.2565 5.16332 18.5157L5.16507 18.7012L5.16798 19.0017C5.16856 19.0392 5.16895 19.0766 5.16934 19.1141C5.16973 19.1672 5.17031 19.2203 5.17089 19.2731L5.17147 19.3217C5.17283 19.4985 5.18855 19.6862 5.29918 19.8271C5.50782 20.0046 5.74868 20.0014 6.00448 19.9975C6.03767 19.9969 6.07086 19.9965 6.10424 19.9963C6.18149 19.9957 6.25874 19.9948 6.33598 19.9938L6.39809 19.9928C6.39731 20.0769 6.39673 20.161 6.39634 20.2451L6.39576 20.3488C6.39518 20.3992 6.39479 20.4498 6.39459 20.5002C6.3944 20.5167 6.3944 20.5328 6.3944 20.5489V20.549C6.39246 20.6955 6.40663 20.8317 6.45884 20.9686C6.53608 21.0635 6.65428 21.1027 6.7686 21.124L6.81188 21.1307C7.11737 21.1801 7.43275 21.1682 7.73999 21.1409L7.7955 21.1358L7.81364 21.1344C7.91091 21.1269 8.00546 21.1196 8.09245 21.0693C8.17726 20.9931 8.17726 20.9931 8.22248 20.7072V19.952H10.0857C10.0857 19.968 10.0857 19.9791 10.0881 19.9898C10.0936 20.0145 10.1119 20.0363 10.1726 20.1087L10.1726 20.1087L10.1726 20.1087L10.2058 20.1459L10.2371 20.181C10.3529 20.2794 10.4513 20.3083 10.5973 20.3096L10.6594 20.309C10.7291 20.3092 10.7988 20.3092 10.8684 20.309C10.9183 20.3086 10.9682 20.3083 11.0179 20.3083C11.1355 20.3083 11.2529 20.3081 11.3703 20.3075C11.492 20.3069 11.6137 20.3065 11.7354 20.3065C11.841 20.3065 11.9466 20.3065 12.0522 20.3063C12.1024 20.3061 12.1529 20.3059 12.2034 20.3059L12.276 20.3057L12.2769 20.3057H12.2769H12.277H12.2771C12.3248 20.3056 12.3726 20.3056 12.4203 20.3053C12.4427 20.3053 12.4646 20.3051 12.4864 20.3049L12.4867 20.3049H12.4936C12.5644 20.3049 12.6351 20.3049 12.7058 20.299C12.8644 20.2559 12.9479 20.1522 13.0358 20.0132L13.0746 19.9316H14.996C14.996 19.9931 14.9909 20.0669 14.9853 20.1474V20.1474V20.1474V20.1474V20.1474C14.9665 20.4188 14.9424 20.767 15.0907 20.9854L15.0908 20.9854L15.0908 20.9854C15.1373 21.0225 15.1692 21.048 15.2051 21.0655C15.2837 21.1038 15.3811 21.1034 15.6922 21.1023L15.7259 21.1021C15.771 21.1017 15.8162 21.1013 15.8613 21.1015C15.8914 21.1016 15.9218 21.1018 15.9525 21.1021L15.9529 21.1021C16.2064 21.1044 16.4743 21.1068 16.704 20.9929V20.9521H16.7428C16.8165 20.836 16.8249 20.7021 16.8249 20.5651L16.8243 20.5151C16.8241 20.4612 16.8239 20.4071 16.8233 20.3532L16.8226 20.2412L16.8226 20.24C16.8222 20.1538 16.8218 20.0675 16.8212 19.9814L16.8204 19.9112C17.0091 19.9236 17.1971 19.9342 17.3862 19.9344C17.4091 19.9342 17.4314 19.9342 17.4537 19.9342L17.4768 19.9343C17.7229 19.9353 17.9977 19.9364 18.194 19.7575C18.3157 19.6207 18.3193 19.4668 18.3184 19.287C18.3182 19.2617 18.3178 19.237 18.3174 19.2123C18.317 19.1454 18.3166 19.0784 18.316 19.0115C18.3153 18.9231 18.3147 18.8349 18.3145 18.7465C18.3143 18.4822 18.3131 18.2179 18.3116 17.9536L18.3116 17.9529C18.3108 17.815 18.31 17.677 18.3098 17.539C18.3094 17.4156 18.3091 17.2923 18.3083 17.1688C18.3081 17.1165 18.3077 17.0643 18.3073 17.0123V17.0119C18.3073 16.9379 18.3073 16.864 18.3067 16.7902L18.3061 16.7218C18.3071 16.503 18.2652 16.3079 18.1579 16.1183L18.1367 16.083C17.9122 15.7027 17.5999 15.4198 17.2505 15.1708L17.2154 15.1459L17.148 15.0982C16.9351 14.9508 16.8406 14.7179 16.7525 14.4756C16.6801 14.2703 16.6801 14.2703 16.479 13.769C16.4093 13.5953 16.3399 13.4213 16.2706 13.2473L16.2702 13.2463L16.2256 13.1344C16.1957 13.0595 16.1658 12.9845 16.1357 12.9095L16.1072 12.8389C16.0631 12.7301 16.019 12.6211 15.9785 12.5107L15.9547 12.4437C15.8839 12.2433 15.8088 12.0305 15.6753 11.8694C15.5494 11.7533 15.4059 11.689 15.2383 11.6835C15.1992 11.6839 15.1602 11.6843 15.121 11.6845ZM15.4846 12.3989L15.4694 12.3618C13.8114 12.3591 12.1533 12.3618 10.4953 12.3693C10.3291 12.3701 10.1628 12.371 9.99646 12.3716C9.79014 12.3724 9.58364 12.3734 9.37733 12.3744L9.05806 12.3761L8.75897 12.3773C8.72268 12.3777 8.68619 12.3779 8.6499 12.3779C8.59943 12.3781 8.54897 12.3783 8.49851 12.3787L8.45309 12.3789L8.44487 12.3789C8.3763 12.3791 8.31595 12.3792 8.2495 12.4026C8.18254 12.4589 8.15149 12.5208 8.11772 12.6014L8.09908 12.6475C8.04202 12.7855 7.98807 12.9247 7.93528 13.0647C7.90481 13.1472 7.87433 13.2294 7.83979 13.3103C7.77263 13.4629 7.7113 13.6176 7.65075 13.7734C7.56574 13.9928 7.47995 14.2114 7.38951 14.4283C7.38214 14.4455 7.37495 14.4622 7.36797 14.479L7.34837 14.5257C7.32003 14.5926 7.30935 14.6569 7.29849 14.7294C8.21185 14.731 9.12502 14.7267 10.0384 14.7218L10.6921 14.7184L11.8597 14.7122C12.2374 14.7104 12.6152 14.7084 12.9929 14.7063C13.0172 14.7063 13.0406 14.7061 13.0641 14.7059L13.0642 14.7059L13.4184 14.7041C14.4127 14.699 15.4068 14.6939 16.4011 14.6886C16.4011 14.6478 16.4011 14.6478 16.3803 14.598C16.3316 14.491 16.2844 14.3838 16.2417 14.274C16.1747 14.1008 16.106 13.9285 16.0366 13.7564L16.0189 13.7127C15.9141 13.4527 15.8085 13.1931 15.7025 12.9337L15.577 12.6255L15.5663 12.5993L15.5531 12.5671L15.5249 12.4979L15.4846 12.3989ZM13.6348 16.4812H13.6967C14.2138 16.4814 14.731 16.4818 15.248 16.4824V17.2172C13.9356 17.2306 12.623 17.2404 11.3104 17.248L10.9058 17.2504C9.95302 17.2561 9.00026 17.2592 8.0475 17.258V16.5028C8.55988 16.4993 9.07227 16.4959 9.58446 16.4926C9.60331 16.4926 9.62217 16.4924 9.64157 16.4922L9.64326 16.4922C10.9739 16.484 12.3044 16.4806 13.6348 16.4812ZM10.5672 19.0479L10.508 19.0485C10.3535 19.0492 10.3125 19.1745 10.3094 19.3235V19.3723C10.309 19.4067 10.3088 19.441 10.3087 19.4755C10.3088 19.5296 10.3088 19.5835 10.3081 19.6374C10.3075 19.6729 10.3071 19.7082 10.3069 19.7435V19.7943C10.3067 19.8109 10.3063 19.827 10.3059 19.8429L10.3065 19.889C10.3063 19.9621 10.3343 20.0152 10.3807 20.0697C10.399 20.083 10.4112 20.0918 10.4246 20.0977C10.4509 20.1092 10.4822 20.1096 10.5749 20.1105C10.5971 20.1099 10.6184 20.1095 10.6398 20.1091C10.7118 20.1093 10.7838 20.1093 10.856 20.1085C10.9206 20.1078 10.985 20.1074 11.0497 20.1072C11.1578 20.1072 11.2659 20.1066 11.374 20.1056C11.5279 20.1042 11.6816 20.1034 11.8353 20.1029C11.9069 20.1028 11.9784 20.1025 12.05 20.1022L12.1573 20.1017L12.1601 20.1017L12.1605 20.1017C12.1857 20.1015 12.2102 20.1013 12.2347 20.1013C12.3097 20.1009 12.3846 20.1005 12.4595 20.0999L12.5278 20.0993L12.5295 20.0993H12.5296H12.5297C12.5511 20.0991 12.5721 20.0989 12.593 20.0989L12.652 20.0983C12.7326 20.0976 12.7646 20.0936 12.8242 20.0333C12.8665 19.9633 12.87 19.925 12.8704 19.8441L12.8692 19.795C12.8692 19.7603 12.869 19.7256 12.8688 19.6909C12.8679 19.6364 12.8671 19.5819 12.8667 19.5272L12.8661 19.42L12.8661 19.4188C12.8659 19.4019 12.8657 19.3853 12.8657 19.369L12.8656 19.3342C12.8657 19.2446 12.8658 19.1655 12.8059 19.0916C12.7293 19.0447 12.7293 19.0447 12.5851 19.0434L12.5204 19.044H12.5202H12.5202H12.5202C12.4481 19.0438 12.3762 19.0436 12.3042 19.044C12.2396 19.0445 12.175 19.0447 12.1103 19.0447C12.0022 19.0447 11.8941 19.0449 11.786 19.0455C11.6601 19.0461 11.5341 19.0465 11.4081 19.0465C11.2861 19.0465 11.164 19.0465 11.0419 19.0469L10.9255 19.0471C10.8505 19.0471 10.7756 19.0473 10.7005 19.0477C10.6774 19.0477 10.6547 19.0479 10.6322 19.0481C10.6101 19.0481 10.5885 19.0481 10.5672 19.0479ZM6.46361 16.5191L6.5789 16.5195C6.9071 16.5209 7.23471 16.5307 7.56252 16.5434V17.2577C7.02296 17.2765 6.3295 17.2437 5.89339 16.8685C5.87379 16.8491 5.85438 16.8291 5.83517 16.8087L5.81556 16.7888L5.80489 16.7781C5.7947 16.7669 5.78822 16.7598 5.78222 16.7524C5.77178 16.7393 5.76279 16.7252 5.73813 16.6863L5.73813 16.6863C5.74202 16.6519 5.74386 16.6357 5.74649 16.6196C5.74885 16.6052 5.75185 16.5909 5.75753 16.5638L5.75753 16.5638C5.99373 16.5215 6.2245 16.5173 6.46361 16.5191ZM16.4742 16.4993C16.2532 16.5001 16.0323 16.5011 15.8112 16.5026V17.2169C16.2817 17.1979 16.7791 17.1492 17.2174 16.9551L17.2669 16.9312C17.2913 16.9199 17.3158 16.9081 17.3397 16.8955C17.4583 16.8091 17.5697 16.7107 17.6162 16.5638C17.5446 16.5068 17.4878 16.4954 17.3987 16.495L17.3513 16.4956C17.2985 16.4956 17.2455 16.4956 17.1925 16.496C17.1549 16.4964 17.1171 16.4966 17.0792 16.4968C16.9802 16.4968 16.8812 16.4972 16.7823 16.4979C16.6796 16.4987 16.5769 16.4991 16.4742 16.4993Z" fill="#863592"/>
<path d="M6.57299 17.0946C6.57299 17.1148 6.57299 17.135 6.57299 17.1558C6.40666 17.1382 6.40666 17.1382 6.34009 17.0946C6.42277 17.0709 6.48914 17.0791 6.57299 17.0946Z" fill="#863592"/>
<path d="M13.4785 4.86575C13.4999 4.86992 13.5213 4.87408 13.5433 4.87825C13.6972 4.90831 13.8502 4.94122 14.0032 4.97545C14.0253 4.98028 14.0473 4.98533 14.0702 4.99037C14.9637 5.19157 15.8241 5.50928 16.6446 5.92901C16.6899 5.95204 16.7355 5.97508 16.7808 5.9979C17.3194 6.26843 17.8185 6.58899 18.3061 6.95014C18.3286 6.96659 18.3511 6.98305 18.3742 6.99994C18.7104 7.24744 19.0267 7.51797 19.3302 7.80759C19.3703 7.84401 19.41 7.87517 19.4541 7.90589C19.5261 7.95701 19.5767 8.02086 19.6323 8.09019C19.6705 8.13517 19.7106 8.17313 19.7544 8.21174C19.8264 8.27559 19.8869 8.34427 19.948 8.41931C19.9866 8.4656 20.0273 8.50883 20.0693 8.55183C20.1369 8.62138 20.1999 8.69357 20.2618 8.76883C20.3033 8.81907 20.3464 8.86778 20.3894 8.91649C20.4864 9.02883 20.5747 9.14665 20.6633 9.26601C20.7137 9.33359 20.7657 9.39941 20.8184 9.46501C20.8974 9.56528 20.9666 9.66972 21.0342 9.77855C21.0783 9.84876 21.1238 9.91744 21.17 9.98633C21.6534 10.7132 22.0436 11.5042 22.3572 12.3257C22.3652 12.3465 22.3732 12.3674 22.3813 12.3889C22.5602 12.8617 22.7207 13.3521 22.8234 13.8495C22.8398 13.9267 22.8597 14.0022 22.8807 14.0783C23.0337 14.6705 23.0944 15.2932 23.1548 15.9021C23.1565 15.9196 23.1584 15.9372 23.1601 15.9554C23.1739 16.1008 23.18 16.2452 23.1815 16.3913C23.1819 16.4144 23.1821 16.4376 23.1823 16.4613C23.1907 17.3671 23.1286 18.257 22.8186 19.1118C22.7957 19.1781 22.7764 19.2448 22.7573 19.3123C22.7163 19.4536 22.6651 19.5884 22.6091 19.7239C22.5992 19.7481 22.5893 19.7722 22.5791 19.7972C22.5048 19.9776 22.4277 20.1568 22.3492 20.3354C22.3391 20.3589 22.3289 20.3822 22.3184 20.4061C22.2659 20.5244 22.2109 20.6398 22.1488 20.7528C22.1269 20.7936 22.1074 20.8348 22.0883 20.8772C22.0457 20.9673 21.9953 21.052 21.9443 21.1374C21.9042 21.2045 21.865 21.2721 21.8272 21.3408C21.6952 21.5804 21.5514 21.8101 21.4032 22.0392C21.3759 22.0813 21.3488 22.1239 21.322 22.1664C21.1337 22.465 20.9293 22.75 20.72 23.0329C20.7055 23.0526 20.6908 23.0724 20.6759 23.0928C20.6008 23.1941 20.5244 23.2944 20.4475 23.3945C20.42 23.4302 20.3925 23.4662 20.3653 23.5024C20.2036 23.7157 20.0355 23.9228 19.8604 24.1242C19.821 24.1696 19.7824 24.2155 19.744 24.2616C19.6052 24.4279 19.4629 24.5909 19.3189 24.7522C19.2515 24.8279 19.1877 24.906 19.1248 24.9856C19.0788 25.0376 19.0788 25.0376 19.0408 25.0734C19.0269 25.0734 19.0131 25.0734 18.9988 25.0734C18.9906 25.0925 18.9906 25.0925 18.9824 25.1122C18.9547 25.1653 18.9243 25.2009 18.8834 25.2436C18.8609 25.2673 18.8609 25.2673 18.838 25.2915C18.8137 25.3167 18.8137 25.3167 18.7889 25.3426C18.7723 25.3599 18.7557 25.3773 18.7385 25.3952C18.7035 25.4319 18.6682 25.4685 18.6332 25.5052C18.579 25.5616 18.5253 25.618 18.4715 25.6746C18.4373 25.7101 18.4033 25.7456 18.3691 25.7814C18.353 25.7983 18.3368 25.8154 18.32 25.8328C18.3051 25.8483 18.2902 25.8639 18.2747 25.8799C18.2614 25.8937 18.2482 25.9074 18.2346 25.9216C18.2012 25.951 18.2012 25.951 18.1592 25.951C18.1548 25.9631 18.1502 25.9751 18.1456 25.9877C18.1078 26.0559 18.0553 26.1024 17.9993 26.154C17.9762 26.1755 17.9533 26.197 17.9304 26.2185C17.9193 26.229 17.9082 26.2393 17.8966 26.2503C17.8551 26.29 17.8156 26.3315 17.7761 26.3734C17.565 26.597 17.565 26.597 17.4665 26.6312C17.4605 26.6439 17.4546 26.6566 17.4483 26.6698C17.416 26.7367 17.3706 26.7749 17.3171 26.8245C17.3066 26.8344 17.2961 26.844 17.2854 26.8541C17.2289 26.9063 17.1721 26.9581 17.115 27.0097C17.0461 27.072 16.9798 27.1369 16.9135 27.2021C16.5312 27.5788 16.5312 27.5788 16.4171 27.6185C16.4116 27.6308 16.4061 27.6433 16.4005 27.656C16.3627 27.7309 16.3016 27.7767 16.2399 27.8296C16.2132 27.8533 16.1864 27.8768 16.1595 27.9002C16.1463 27.9119 16.1331 27.9235 16.1192 27.9356C16.0655 27.9836 16.0138 28.0332 15.9618 28.0835C15.8889 28.1534 15.8146 28.2201 15.7374 28.2851C15.6492 28.3593 15.5657 28.4371 15.483 28.5181C15.3825 28.6164 15.2792 28.7088 15.1717 28.799C15.114 28.8488 15.059 28.901 15.0042 28.9543C14.9066 29.048 14.8048 29.1333 14.7001 29.2178C14.6006 29.2985 14.5078 29.3852 14.4157 29.4747C14.3414 29.5452 14.2635 29.6103 14.1854 29.6764C14.1302 29.724 14.0771 29.7731 14.0242 29.8236C13.9342 29.9094 13.841 29.9897 13.7461 30.0696C13.6682 30.1371 13.5943 30.2087 13.5204 30.2811C13.4785 30.3173 13.4785 30.3173 13.4365 30.3173C13.4296 30.339 13.4226 30.3607 13.4155 30.3831C13.384 30.4162 13.384 30.4162 13.3433 30.4515C13.3282 30.4651 13.3131 30.4785 13.2975 30.4924C13.2812 30.5068 13.2646 30.5215 13.2476 30.5367C13.1342 30.6411 13.0232 30.7462 12.9197 30.8612C12.8907 30.8877 12.8907 30.8877 12.8488 30.8877C12.8418 30.9095 12.8349 30.9312 12.8278 30.9536C12.795 30.9876 12.795 30.9876 12.7531 31.0235C12.6611 31.1052 12.5757 31.1918 12.4907 31.2814C12.4766 31.2958 12.4626 31.3105 12.4481 31.3255C12.3654 31.4121 12.2869 31.5012 12.2103 31.5938C11.8952 31.9732 11.8952 31.9732 11.6706 31.9966C11.5254 32.0047 11.3851 32.0061 11.2665 31.9075C11.2554 31.8968 11.2441 31.886 11.2325 31.8751C11.2202 31.865 11.208 31.8549 11.1952 31.8446C11.1137 31.7766 11.047 31.6991 10.9796 31.6164C10.8388 31.4494 10.6818 31.2991 10.5178 31.1578C10.4975 31.1403 10.4975 31.1403 10.4769 31.1223C10.4586 31.1067 10.4586 31.1067 10.4402 31.0909C10.4139 31.0633 10.4139 31.0633 10.4139 31.0194C10.3957 31.0106 10.3957 31.0106 10.3768 31.0016C10.3293 30.9753 10.292 30.9461 10.2513 30.9097C10.2385 30.8983 10.2254 30.8871 10.2122 30.8754C10.183 30.8438 10.183 30.8439 10.183 30.8C10.1713 30.7947 10.1593 30.7892 10.1472 30.7837C10.0901 30.7508 10.0483 30.7109 10.0006 30.6642C9.936 30.6023 9.87135 30.5426 9.80124 30.4873C9.71287 30.4169 9.62912 30.3416 9.54537 30.265C9.43602 30.1652 9.3254 30.0674 9.21247 29.9719C9.1451 29.9142 9.07898 29.8552 9.01286 29.7962C8.94296 29.7339 8.87328 29.6726 8.79771 29.6178C8.73411 29.5708 8.685 29.5193 8.62979 29.4616C8.58718 29.4227 8.54458 29.3843 8.50134 29.3464C8.48329 29.3306 8.48328 29.3306 8.46502 29.3146C8.39135 29.2498 8.31726 29.1862 8.24274 29.1228C8.14073 29.0359 8.04082 28.9466 7.94112 28.8569C7.86723 28.7904 7.79251 28.725 7.71673 28.6607C7.61493 28.5745 7.51565 28.4854 7.41637 28.3961C7.3429 28.3301 7.2686 28.2651 7.19325 28.2013C7.0862 28.1104 6.98209 28.0161 6.87819 27.9213C6.80115 27.8511 6.72328 27.7829 6.64373 27.7159C6.53143 27.6209 6.42627 27.5191 6.3209 27.4165C6.25877 27.3559 6.19538 27.2971 6.13116 27.2392C6.08183 27.1942 6.03355 27.1486 5.98507 27.1029C5.91937 27.0408 5.85346 26.9789 5.78692 26.9177C5.77412 26.9059 5.7611 26.8938 5.74767 26.8815C5.70884 26.8466 5.70884 26.8466 5.64923 26.8067C5.64923 26.7922 5.64923 26.7778 5.64923 26.7628C5.63747 26.7573 5.62572 26.7521 5.61354 26.7464C5.55708 26.7143 5.51363 26.6757 5.46557 26.6312C5.44877 26.6158 5.43198 26.6005 5.41477 26.5847C5.37636 26.5434 5.37636 26.5434 5.37636 26.4995C5.35831 26.4914 5.35831 26.4914 5.34005 26.4833C5.284 26.4506 5.24748 26.4122 5.20319 26.3637C5.14379 26.3001 5.08418 26.2391 5.01953 26.1814C4.92403 26.0954 4.82999 26.0061 4.74666 25.9071C4.74666 25.8927 4.74666 25.8782 4.74666 25.8632C4.73533 25.8582 4.7242 25.8534 4.71266 25.8481C4.59448 25.7801 4.51598 25.6862 4.43181 25.578C4.37808 25.519 4.32434 25.4661 4.26389 25.4148C4.19924 25.3571 4.1495 25.2959 4.09597 25.227C4.06134 25.1901 4.02629 25.1535 3.99102 25.1173C3.88314 25.006 3.77672 24.895 3.67827 24.7745C3.61719 24.7021 3.55338 24.6321 3.48979 24.5619C3.38735 24.4478 3.28996 24.3316 3.19635 24.2091C3.14828 24.1479 3.0979 24.0895 3.04648 24.0312C2.87142 23.832 2.71316 23.6185 2.55405 23.4052C2.51984 23.3593 2.48521 23.3135 2.45057 23.2676C2.29462 23.0607 2.14559 22.8499 2.00202 22.6333C1.96802 22.582 1.93317 22.5311 1.89854 22.4802C1.80849 22.3452 1.72432 22.2063 1.64015 22.0675C1.62777 22.0471 1.62777 22.0471 1.61497 22.0262C1.46993 21.7879 1.33244 21.5455 1.19937 21.2995C1.18908 21.2807 1.1788 21.2618 1.1683 21.2425C0.481511 19.9721 -0.00251662 18.4964 0.000212064 17.025C0.000212064 16.9993 0.000211859 16.9734 1.96034e-06 16.9469C1.96034e-06 16.8925 0.000212064 16.8383 0.000212064 16.7839C0.000212064 16.7022 0.000211859 16.6206 1.96034e-06 16.539C-0.000207939 16.0837 0.0163745 15.641 0.0803937 15.1903C0.0845917 15.1604 0.0845922 15.1604 0.0887902 15.1302C0.206753 14.287 0.405317 13.4666 0.695398 12.6699C0.71177 12.6241 0.727932 12.5782 0.744095 12.5324C0.817559 12.3228 0.89921 12.1186 0.988207 11.9156C0.994924 11.9002 1.00143 11.8851 1.00836 11.8693C1.1089 11.6391 1.21427 11.4123 1.32531 11.1874C1.3379 11.1619 1.35049 11.1365 1.3633 11.1101C1.43172 10.9737 1.50477 10.8429 1.58537 10.7139C1.61581 10.6636 1.64372 10.6127 1.6708 10.5603C1.73524 10.4368 1.81038 10.3209 1.88553 10.2042C1.90799 10.1693 1.90799 10.1693 1.93065 10.1336C2.09396 9.87992 2.26418 9.63264 2.44113 9.38888C2.49654 9.31362 2.49654 9.31362 2.54272 9.232C2.55657 9.232 2.57043 9.232 2.5847 9.232C2.59163 9.21467 2.59163 9.21467 2.59855 9.19711C2.63738 9.12427 2.6886 9.06415 2.74087 9.00162C2.75199 8.98802 2.76311 8.97463 2.77466 8.96059C2.86659 8.85023 2.96063 8.74206 3.05571 8.63477C3.10336 8.58079 3.14975 8.52594 3.19593 8.47087C3.28954 8.36204 3.38756 8.25804 3.48601 8.15426C3.50196 8.13715 3.51791 8.12025 3.53428 8.10292C3.54919 8.08712 3.5643 8.07132 3.57962 8.05531C3.59326 8.04104 3.6067 8.02678 3.62076 8.01208C3.65519 7.98136 3.65519 7.98136 3.69717 7.98136C3.69717 7.96688 3.69717 7.9524 3.69717 7.93748C3.72361 7.90896 3.72361 7.90896 3.76265 7.87429C3.77819 7.86069 3.79351 7.84709 3.80946 7.83282C3.82793 7.81681 3.84619 7.80057 3.86508 7.7839C3.8867 7.76437 3.90832 7.74484 3.92994 7.72531C4.23325 7.45039 4.54453 7.19215 4.8726 6.95014C4.89611 6.93259 4.91962 6.91503 4.94313 6.8977C5.88683 6.20283 6.95606 5.6407 8.06433 5.29557C8.10694 5.28197 8.14934 5.26814 8.19152 5.25388C8.20601 5.24906 8.22049 5.24423 8.2356 5.23918C8.27527 5.22602 8.31495 5.21285 8.35462 5.19947C9.06408 4.97348 9.8046 4.85258 10.5392 4.76131C10.5764 4.7567 10.6133 4.75187 10.6505 4.74705C11.5717 4.62835 12.5671 4.68824 13.4785 4.86575ZM10.5819 7.08178C10.5562 7.08551 10.5306 7.08924 10.5044 7.09319C9.52627 7.24415 8.55318 7.51073 7.66804 7.97917C7.62606 8.00133 7.58345 8.02261 7.54084 8.04368C7.1605 8.23215 6.78562 8.46648 6.44684 8.72736C6.41557 8.75083 6.3845 8.77409 6.35323 8.79757C6.1364 8.96059 5.93196 9.13348 5.73319 9.31976C5.70044 9.35004 5.6677 9.3801 5.63474 9.41016C5.62299 9.42113 5.61123 9.4321 5.59906 9.44329C5.56527 9.47335 5.56527 9.47335 5.51888 9.50736C5.5065 9.51789 5.49411 9.52842 5.48131 9.53917C5.48131 9.55365 5.48131 9.56814 5.48131 9.58305C5.46976 9.5881 5.45822 9.59293 5.44625 9.59819C5.38286 9.63549 5.33837 9.68289 5.28715 9.73664C5.26847 9.75617 5.24979 9.77548 5.23048 9.79566C5.18283 9.84042 5.18283 9.84042 5.18745 9.89023C5.16667 9.89747 5.14589 9.90471 5.12448 9.91217C5.09132 9.94552 5.09132 9.94552 5.05899 9.98765C5.0019 10.0579 4.94397 10.1268 4.88435 10.1948C4.792 10.3018 4.70573 10.4129 4.62072 10.5265C4.59847 10.5557 4.57601 10.5851 4.55376 10.6143C4.28488 10.9682 4.05525 11.3392 3.84409 11.7333C3.83402 11.7521 3.82373 11.7708 3.81324 11.7901C3.42786 12.5025 3.12981 13.2641 2.94153 14.059C2.93607 14.0818 2.9304 14.1049 2.92474 14.1283C2.83994 14.4827 2.77529 14.8377 2.73163 15.1999C2.72848 15.2261 2.72533 15.2522 2.72197 15.2791C2.62962 16.0752 2.6546 16.8633 2.75262 17.6573C2.75745 17.6968 2.75745 17.6968 2.76248 17.7372C2.8053 18.0672 2.88087 18.3869 2.96546 18.7076C2.98183 18.7695 2.99736 18.8316 3.01289 18.8939C3.28324 19.9587 3.79288 20.9616 4.41082 21.8481C4.41922 21.8601 4.42761 21.8724 4.43622 21.8849C4.60099 22.1223 4.78297 22.3441 4.97188 22.5609C4.99833 22.5914 5.02457 22.6221 5.05017 22.6533C5.15617 22.7827 5.26994 22.903 5.38559 23.0232C5.40448 23.0432 5.42338 23.0631 5.4429 23.0836C5.55036 23.1957 5.65972 23.3032 5.77517 23.4059C5.79532 23.4245 5.81568 23.4429 5.83646 23.462C6.09065 23.6909 6.35764 23.9125 6.64436 24.0952C6.69578 24.1282 6.74637 24.1624 6.79675 24.1973C8.42976 25.3165 10.4887 25.8275 12.429 25.6C12.4502 25.5975 12.4714 25.5951 12.4932 25.5925C12.926 25.5412 13.3492 25.4668 13.7723 25.3586C13.7933 25.3533 13.8143 25.3481 13.8359 25.3426C14.4904 25.1747 15.1279 24.9185 15.7244 24.5907C15.7527 24.5753 15.7527 24.5753 15.7817 24.5595C16.0533 24.4112 16.3144 24.2548 16.5657 24.0716C16.6026 24.0446 16.64 24.018 16.6773 23.9919C16.9563 23.7942 17.2208 23.5812 17.4665 23.34C17.4936 23.3152 17.5207 23.2905 17.548 23.2659C17.7705 23.0634 17.9898 22.8543 18.1823 22.6199C18.2279 22.5653 18.2749 22.5126 18.3219 22.4598C18.4035 22.3661 18.4806 22.2698 18.5555 22.1704C18.5696 22.1515 18.5696 22.1515 18.5843 22.1322C18.6277 22.0734 18.6686 22.0148 18.7077 21.9527C18.7469 21.8919 18.7469 21.8919 18.7759 21.8628C18.8208 21.8143 18.8544 21.7609 18.8905 21.7048C18.8983 21.6929 18.906 21.6809 18.9138 21.6686C18.9388 21.6297 18.9635 21.5909 18.9883 21.5519C18.9967 21.5385 19.0053 21.5253 19.0139 21.5115C19.1489 21.2993 19.2776 21.0843 19.3953 20.8609C19.4165 20.8206 19.4383 20.7806 19.4602 20.7405C19.7139 20.2639 19.9043 19.7534 20.0693 19.2371C20.0752 19.2189 20.0811 19.2007 20.0869 19.182C20.258 18.6445 20.3623 18.0828 20.4326 17.5215C20.436 17.4952 20.4393 17.4689 20.4427 17.4416C20.4868 17.0691 20.4927 16.6961 20.4918 16.3211C20.4918 16.2531 20.4918 16.1851 20.492 16.1171C20.4922 15.7215 20.4786 15.3336 20.4209 14.9421C20.4186 14.9261 20.4163 14.9103 20.414 14.8939C20.3732 14.6128 20.3239 14.3348 20.2582 14.059C20.2521 14.0338 20.2521 14.0338 20.246 14.0081C20.1335 13.5438 19.9767 13.0945 19.7964 12.6548C19.7891 12.6368 19.7819 12.6188 19.7744 12.6004C19.6934 12.4003 19.6052 12.2098 19.4992 12.0229C19.4648 11.9601 19.4348 11.8974 19.4056 11.832C19.2545 11.5101 19.0483 11.2128 18.8521 10.9197C18.8099 10.8556 18.8099 10.8556 18.7889 10.8117C18.7751 10.8117 18.7612 10.8117 18.7469 10.8117C18.7419 10.7999 18.7369 10.7881 18.7318 10.776C18.4312 10.193 17.8332 9.60829 17.3406 9.21006C17.3007 9.17583 17.2608 9.1416 17.2212 9.10716C16.9418 8.86602 16.6429 8.63828 16.3331 8.44212C16.309 8.42655 16.309 8.42655 16.2844 8.41075C16.2309 8.37674 16.1771 8.34339 16.1232 8.31048C16.0886 8.2892 16.0886 8.2892 16.0531 8.26769C15.6574 8.02898 15.2481 7.82361 14.8218 7.65225C14.8033 7.64457 14.7847 7.63711 14.7656 7.62921C14.4715 7.50963 14.1732 7.42033 13.8676 7.33827C13.8271 7.32665 13.787 7.31348 13.7471 7.29944C13.6667 7.27179 13.5851 7.25512 13.502 7.238C13.4839 7.23449 13.4659 7.23076 13.4472 7.22681C12.8316 7.10197 12.2315 7.03373 11.6043 7.03373C11.5293 7.03373 11.4544 7.0333 11.3795 7.03308C11.1104 7.0322 10.8482 7.04119 10.5819 7.08178Z" fill="#863592"/>
<path d="M20.8235 6.13602C21.8741 7.07309 22.7685 8.19204 23.4675 9.44409C24.1664 10.6961 24.6597 12.0625 24.9258 13.4839" stroke="#863592" stroke-width="0.838506" stroke-linecap="round" stroke-linejoin="round"/>
<path d="M22.2505 3.43616C23.7368 4.66951 24.9939 6.18723 25.955 7.90873C26.9158 9.62978 27.5634 11.5232 27.8633 13.4887" stroke="#863592" stroke-width="0.838506" stroke-linecap="round" stroke-linejoin="round"/>
<path d="M23.6733 0.748132C25.5977 2.26917 27.2196 4.18174 28.442 6.37128C29.6648 8.56143 30.4626 10.9836 30.7877 13.4927" stroke="#863592" stroke-width="0.838506" stroke-linecap="round" stroke-linejoin="round"/>
</svg>
