<svg width="851" height="704" viewBox="0 0 851 704" fill="none" xmlns="http://www.w3.org/2000/svg">
<path fill-rule="evenodd" clip-rule="evenodd" d="M453.78 95.8498C453.72 95.8502 453.66 95.8506 453.6 95.8515C453.162 95.8564 452.724 95.8581 452.287 95.8597C451.895 95.8597 451.502 95.8597 451.111 95.8614C450.95 95.8614 450.789 95.8618 450.629 95.8622C450.468 95.8627 450.308 95.8631 450.147 95.8631C449.842 95.8639 449.537 95.8643 449.232 95.8647C448.927 95.8651 448.622 95.8656 448.317 95.8664C448.121 95.8672 447.924 95.8676 447.728 95.868C447.532 95.8685 447.336 95.8689 447.139 95.8697C442.115 95.8797 437.089 95.8913 432.065 95.9029C431.242 95.9062 430.419 95.9079 429.597 95.9095C429.511 95.9095 429.427 95.9099 429.344 95.9103C429.262 95.9108 429.18 95.9112 429.099 95.9112C426.447 95.9178 423.793 95.9228 421.14 95.9277L421.125 95.9278C418.38 95.9327 415.633 95.9394 412.888 95.9477C412.326 95.9488 411.763 95.9501 411.2 95.9513L411.2 95.9513C410.074 95.9539 408.947 95.9565 407.821 95.9576C406.655 95.9593 405.487 95.9626 404.321 95.9659C403.646 95.9692 402.969 95.9709 402.294 95.9709L401.904 95.9711C399.742 95.9721 397.578 95.9732 395.418 96.1218C395.241 96.1351 395.068 96.1484 394.896 96.1616C394.063 96.2214 393.287 96.2778 392.51 96.6029C390.228 97.7607 390.228 97.7607 388.077 103.457L388.077 103.457C387.486 105.031 386.861 106.587 386.224 108.141C385.764 109.259 385.31 110.379 384.864 111.502L384.806 111.647C384.555 112.277 384.303 112.908 384.046 113.535C383.985 113.684 383.925 113.828 383.865 113.972L383.865 113.973L383.728 114.306L383.728 114.306L383.728 114.306L383.728 114.306L383.728 114.306C383.65 114.494 383.572 114.683 383.495 114.872C383.16 115.683 382.828 116.498 382.513 117.319L382.486 117.39L382.486 117.39L382.486 117.39C382.421 117.563 382.357 117.732 382.294 117.901L381.856 119.061L381.82 119.16C381.48 120.087 381.149 120.988 380.619 121.829C380.373 122.191 380.199 122.491 380.022 122.896C379.984 123.008 379.945 123.118 379.907 123.227H379.576C379.045 123.766 378.502 124.203 377.885 124.641C376.208 125.823 374.553 127.018 373.125 128.499L373.076 128.55C372.974 128.658 372.875 128.763 372.775 128.867C371.751 129.912 370.822 130.907 370.167 132.233C370.117 132.338 370.068 132.442 370.02 132.545L370.019 132.545L370.019 132.545L370.019 132.546L369.955 132.682C368.82 134.855 368.744 136.995 368.761 139.395L368.766 140.351C368.769 141.525 368.777 142.699 368.787 143.874C368.789 144.069 368.791 144.264 368.793 144.459L368.793 144.459C368.795 144.655 368.797 144.85 368.799 145.045C368.815 147.151 368.835 149.258 368.857 151.365L368.872 152.872L368.897 155.314C368.902 155.619 368.905 155.923 368.908 156.228C368.912 156.659 368.917 157.091 368.921 157.52L368.926 157.915C368.938 159.351 369.072 160.877 370.018 162.022C371.801 163.465 373.86 163.439 376.046 163.407C376.329 163.402 376.613 163.399 376.898 163.397C377.559 163.392 378.219 163.385 378.879 163.377C378.967 163.376 379.053 163.374 379.139 163.373C379.23 163.372 379.32 163.371 379.41 163.369C379.403 164.052 379.398 164.736 379.395 165.419L379.39 166.262C379.385 166.671 379.382 167.083 379.38 167.493C379.378 167.627 379.378 167.757 379.378 167.888V167.889C379.362 169.08 379.483 170.186 379.929 171.299C380.589 172.071 381.599 172.389 382.576 172.562L382.668 172.575L382.855 172.603L382.946 172.616C385.557 173.018 388.252 172.922 390.878 172.699C390.969 172.692 391.059 172.684 391.147 172.676L391.148 172.676L391.148 172.676L391.148 172.676C391.217 172.67 391.285 172.664 391.353 172.658L391.508 172.646H391.508C392.339 172.586 393.147 172.526 393.891 172.117C394.615 171.498 394.615 171.498 395.002 169.175V163.037H410.926C410.926 163.468 410.926 163.468 411.669 164.311C411.714 164.359 411.759 164.407 411.803 164.454L411.806 164.457L411.808 164.459L411.855 164.509C411.888 164.544 411.92 164.578 411.953 164.613C411.995 164.659 412.037 164.703 412.078 164.747C412.126 164.798 412.173 164.848 412.22 164.898C413.21 165.698 414.051 165.933 415.298 165.943L415.829 165.938C416.425 165.94 417.02 165.94 417.616 165.938C418.042 165.935 418.468 165.933 418.893 165.933C419.898 165.933 420.901 165.932 421.905 165.927C422.945 165.922 423.985 165.918 425.025 165.918C425.927 165.918 426.83 165.918 427.732 165.917C428.162 165.915 428.593 165.913 429.024 165.913C429.231 165.913 429.438 165.912 429.645 165.912H429.645H429.646H429.647C430.057 165.911 430.468 165.911 430.879 165.908C431.07 165.908 431.255 165.907 431.441 165.905L431.446 165.905H431.505C432.111 165.905 432.715 165.905 433.319 165.857C434.674 165.507 435.387 164.664 436.139 163.535L436.47 162.871H452.892C452.892 163.372 452.848 163.971 452.801 164.626C452.64 166.831 452.434 169.661 453.701 171.435C454.093 171.733 454.363 171.938 454.664 172.08C455.339 172.398 456.164 172.395 458.842 172.386L459.129 172.384H459.13H459.131H459.131H459.132C459.517 172.381 459.902 172.378 460.287 172.379C460.545 172.38 460.806 172.382 461.069 172.384H461.07H461.07H461.07C463.236 172.403 465.526 172.423 467.489 171.497V171.165H467.821C468.451 170.221 468.522 169.133 468.522 168.02C468.519 167.815 468.519 167.814 468.517 167.616L468.517 167.614C468.516 167.176 468.514 166.736 468.509 166.298C468.508 166.149 468.507 166 468.506 165.851L468.506 165.843C468.505 165.691 468.503 165.539 468.502 165.388L468.502 165.378C468.499 164.678 468.496 163.976 468.491 163.276L468.484 162.705C470.096 162.807 471.704 162.893 473.319 162.895C473.515 162.893 473.706 162.893 473.897 162.893L474.094 162.894C476.198 162.901 478.546 162.91 480.223 161.456C481.263 160.345 481.295 159.094 481.286 157.633C481.285 157.427 481.281 157.227 481.278 157.026C481.275 156.482 481.271 155.938 481.266 155.394C481.26 154.675 481.255 153.959 481.253 153.241C481.252 151.093 481.242 148.944 481.228 146.796C481.222 145.673 481.215 144.55 481.213 143.428C481.21 142.424 481.207 141.422 481.2 140.419C481.198 139.994 481.195 139.569 481.192 139.146C481.192 138.544 481.192 137.942 481.187 137.342L481.182 136.786C481.19 135.008 480.832 133.422 479.915 131.881L479.823 131.736L479.734 131.594C477.815 128.504 475.146 126.205 472.16 124.181L472.085 124.131C472.01 124.08 471.935 124.03 471.86 123.979C471.765 123.915 471.671 123.852 471.577 123.788L471.572 123.785L471.432 123.69L471.284 123.591C469.465 122.393 468.657 120.5 467.904 118.531L467.903 118.53C467.726 118.052 467.599 117.711 467.468 117.371C467.143 116.527 466.792 115.694 465.568 112.793L465.568 112.792L465.567 112.79L465.567 112.789L465.566 112.789C464.969 111.374 464.375 109.957 463.782 108.541C463.654 108.237 463.527 107.934 463.399 107.63L463.396 107.621C463.142 107.015 462.888 106.41 462.632 105.804C462.553 105.616 462.473 105.429 462.393 105.241L462.388 105.23C462.012 104.345 461.635 103.46 461.289 102.563C461.221 102.383 461.153 102.201 461.086 102.018C460.481 100.389 459.838 98.6603 458.698 97.351C457.621 96.4071 456.395 95.8846 454.962 95.8398C454.629 95.8432 454.295 95.8465 453.96 95.8481C453.899 95.849 453.84 95.8494 453.78 95.8498ZM456.998 101.491C456.978 101.444 456.958 101.398 456.938 101.352C442.767 101.33 428.597 101.352 414.426 101.413C413.006 101.42 411.585 101.426 410.163 101.431C408.4 101.438 406.635 101.446 404.872 101.454C404.417 101.457 403.962 101.459 403.507 101.461C403.052 101.463 402.598 101.465 402.143 101.468L399.587 101.478C399.277 101.481 398.965 101.483 398.655 101.483C398.223 101.484 397.792 101.486 397.361 101.489C397.294 101.489 397.228 101.49 397.163 101.49C397.099 101.491 397.036 101.491 396.973 101.491L396.902 101.491C396.316 101.492 395.801 101.494 395.233 101.683C394.661 102.141 394.395 102.644 394.106 103.299C394.076 103.37 394.046 103.44 394.017 103.51L394.017 103.51L394.016 103.511L394.015 103.513C393.993 103.567 393.97 103.62 393.947 103.674C393.46 104.795 392.998 105.926 392.547 107.064C392.287 107.734 392.026 108.403 391.731 109.06C391.157 110.301 390.633 111.558 390.116 112.823C389.389 114.607 388.656 116.383 387.883 118.146C387.82 118.286 387.758 118.422 387.699 118.558C387.642 118.687 387.588 118.812 387.531 118.938C387.289 119.482 387.198 120.004 387.105 120.593C394.911 120.606 402.715 120.571 410.521 120.532C411.444 120.527 412.366 120.522 413.288 120.518L413.295 120.518L413.302 120.518L413.309 120.518C414.242 120.513 415.175 120.508 416.108 120.503L426.087 120.454C429.315 120.439 432.545 120.422 435.772 120.406C435.98 120.406 436.18 120.404 436.381 120.402L439.408 120.387C447.906 120.346 456.402 120.304 464.9 120.261C464.9 119.93 464.9 119.93 464.722 119.525C464.306 118.656 463.903 117.785 463.538 116.892C462.966 115.484 462.379 114.084 461.785 112.686L461.724 112.542C461.694 112.471 461.664 112.401 461.634 112.331C460.738 110.218 459.836 108.108 458.93 105.999L458.608 105.249L458.608 105.248C458.357 104.663 458.107 104.079 457.857 103.495C457.826 103.423 457.796 103.352 457.766 103.282C457.728 103.194 457.691 103.107 457.653 103.02C457.572 102.832 457.492 102.645 457.412 102.457L457.409 102.451C457.295 102.185 457.182 101.919 457.067 101.654C457.044 101.599 457.021 101.545 456.998 101.492L456.998 101.491ZM441.262 134.83H441.791C446.21 134.832 450.63 134.835 455.049 134.84V140.811C443.833 140.921 432.615 141 421.396 141.062L417.938 141.082C409.795 141.128 401.652 141.153 393.51 141.143V135.006C397.889 134.978 402.268 134.949 406.645 134.923C406.806 134.923 406.968 134.921 407.133 134.92L407.148 134.92C418.52 134.853 429.891 134.825 441.262 134.83ZM414.786 155.693C414.723 155.694 414.66 155.694 414.536 155.695C413.216 155.7 412.866 156.718 412.839 157.929V158.326C412.836 158.606 412.834 158.885 412.833 159.165C412.834 159.605 412.834 160.042 412.828 160.48C412.823 160.769 412.819 161.056 412.818 161.343V161.756C412.816 161.89 412.813 162.021 412.81 162.151L412.815 162.526C412.813 163.119 413.052 163.551 413.448 163.994C413.603 164.1 413.706 164.171 413.819 164.219C414.045 164.315 414.311 164.318 415.109 164.325C415.298 164.32 415.48 164.317 415.663 164.314C416.278 164.315 416.893 164.315 417.51 164.309C418.063 164.304 418.613 164.3 419.166 164.299C420.09 164.299 421.014 164.294 421.938 164.285C423.253 164.274 424.567 164.267 425.88 164.264C426.492 164.263 427.104 164.26 427.716 164.258C428.022 164.256 428.327 164.255 428.632 164.254L428.659 164.254H428.659C428.875 164.252 429.084 164.251 429.294 164.251C429.934 164.247 430.575 164.244 431.215 164.239L431.799 164.234L431.816 164.234C431.999 164.232 432.178 164.231 432.356 164.231L432.86 164.226C433.549 164.221 433.822 164.188 434.332 163.698C434.693 163.129 434.723 162.817 434.727 162.161L434.717 161.761C434.717 161.479 434.715 161.197 434.713 160.915C434.705 160.472 434.698 160.029 434.695 159.585L434.69 158.714C434.688 158.573 434.687 158.435 434.687 158.299C434.686 158.203 434.686 158.109 434.686 158.016C434.687 157.288 434.688 156.645 434.176 156.045C433.922 155.897 433.766 155.806 433.599 155.75C433.335 155.662 433.043 155.659 432.288 155.653H432.288H432.288L431.736 155.658L431.733 155.658H431.733H431.732C431.116 155.657 430.502 155.655 429.888 155.658C429.336 155.662 428.783 155.663 428.231 155.663C427.307 155.663 426.383 155.665 425.459 155.67C424.383 155.675 423.306 155.678 422.23 155.678C421.186 155.678 420.143 155.678 419.099 155.682C418.934 155.682 418.768 155.682 418.602 155.682C418.436 155.683 418.27 155.683 418.104 155.683C417.464 155.683 416.824 155.685 416.182 155.688C415.984 155.688 415.79 155.69 415.598 155.692C415.409 155.692 415.225 155.692 415.042 155.69L415.038 155.69C414.912 155.692 414.849 155.692 414.786 155.693ZM379.97 135.139C380.134 135.14 380.298 135.141 380.462 135.141C380.626 135.142 380.791 135.142 380.955 135.143C383.76 135.154 386.56 135.234 389.361 135.337V141.142C384.75 141.295 378.823 141.028 375.096 137.979C374.929 137.822 374.763 137.659 374.599 137.493C374.543 137.439 374.488 137.386 374.431 137.332L374.43 137.331C374.4 137.302 374.37 137.274 374.34 137.244C374.101 136.996 374.101 136.996 373.769 136.498C373.802 136.219 373.818 136.087 373.841 135.956C373.861 135.839 373.886 135.723 373.935 135.503C375.954 135.159 377.926 135.125 379.97 135.139ZM465.525 134.977C463.636 134.984 461.748 134.992 459.859 135.004V140.81C463.88 140.655 468.131 140.259 471.876 138.681C471.932 138.656 471.988 138.631 472.042 138.606C472.129 138.566 472.214 138.527 472.299 138.487C472.508 138.396 472.717 138.3 472.922 138.197C473.935 137.495 474.887 136.696 475.285 135.502C474.673 135.039 474.187 134.946 473.426 134.943L473.021 134.948C472.57 134.948 472.117 134.948 471.664 134.951C471.342 134.954 471.019 134.956 470.695 134.958C469.85 134.958 469.004 134.961 468.158 134.966C467.28 134.972 466.403 134.976 465.525 134.977Z" fill="#FDFCFD"/>
<path d="M380.903 139.815C380.903 139.979 380.903 140.143 380.903 140.313C379.482 140.17 379.482 140.17 378.913 139.815C379.619 139.623 380.187 139.689 380.903 139.815Z" fill="#863592"/>
<path d="M439.923 40.4345C440.106 40.4683 440.289 40.5022 440.477 40.5361C441.792 40.7804 443.1 41.0479 444.408 41.326C444.596 41.3652 444.785 41.4063 444.98 41.4473C452.617 43.0824 459.97 45.6643 466.982 49.0755C467.37 49.2627 467.759 49.4499 468.147 49.6354C472.75 51.8339 477.016 54.4391 481.183 57.3741C481.375 57.5078 481.567 57.6416 481.764 57.7789C484.638 59.7902 487.341 61.9888 489.935 64.3425C490.278 64.6385 490.617 64.8917 490.994 65.1414C491.609 65.5568 492.041 66.0757 492.517 66.6392C492.843 67.0047 493.186 67.3132 493.561 67.627C494.176 68.1459 494.693 68.704 495.215 69.3139C495.545 69.6901 495.893 70.0414 496.252 70.3909C496.829 70.9561 497.367 71.5428 497.897 72.1544C498.252 72.5627 498.62 72.9586 498.987 73.3544C499.816 74.2674 500.571 75.2249 501.328 76.1949C501.759 76.7441 502.204 77.2791 502.654 77.8122C503.329 78.6271 503.92 79.4759 504.498 80.3603C504.875 80.9309 505.264 81.489 505.659 82.0489C509.79 87.9564 513.125 94.3845 515.805 101.061C515.873 101.23 515.941 101.399 516.011 101.574C517.54 105.417 518.912 109.402 519.789 113.444C519.929 114.072 520.1 114.685 520.279 115.304C521.587 120.117 522.105 125.177 522.622 130.125C522.636 130.268 522.652 130.411 522.667 130.559C522.785 131.741 522.837 132.914 522.85 134.102C522.853 134.289 522.855 134.478 522.857 134.671C522.929 142.031 522.398 149.264 519.748 156.211C519.553 156.749 519.388 157.291 519.224 157.84C518.874 158.989 518.437 160.084 517.958 161.186C517.873 161.382 517.789 161.578 517.701 161.781C517.066 163.247 516.408 164.704 515.737 166.155C515.651 166.346 515.563 166.535 515.473 166.729C515.025 167.69 514.555 168.628 514.024 169.547C513.837 169.878 513.67 170.214 513.507 170.558C513.143 171.291 512.712 171.979 512.276 172.672C511.934 173.218 511.598 173.767 511.275 174.325C510.147 176.273 508.918 178.139 507.652 180.001C507.419 180.343 507.187 180.689 506.958 181.035C505.348 183.462 503.601 185.778 501.813 188.077C501.689 188.237 501.563 188.398 501.436 188.564C500.794 189.387 500.141 190.202 499.484 191.015C499.249 191.306 499.014 191.598 498.781 191.893C497.4 193.626 495.963 195.309 494.467 196.946C494.129 197.315 493.799 197.688 493.471 198.062C492.285 199.414 491.069 200.739 489.838 202.049C489.263 202.665 488.717 203.299 488.179 203.947C487.786 204.369 487.786 204.369 487.461 204.66C487.343 204.66 487.225 204.66 487.103 204.66C487.033 204.815 487.033 204.815 486.963 204.975C486.726 205.407 486.466 205.696 486.116 206.044C485.924 206.236 485.924 206.236 485.729 206.432C485.52 206.637 485.52 206.637 485.309 206.848C485.167 206.989 485.025 207.129 484.878 207.276C484.579 207.573 484.277 207.871 483.978 208.169C483.515 208.627 483.056 209.086 482.596 209.546C482.304 209.834 482.013 210.123 481.721 210.414C481.583 210.551 481.445 210.69 481.301 210.831C481.174 210.958 481.046 211.084 480.914 211.215C480.801 211.327 480.688 211.437 480.571 211.553C480.286 211.792 480.286 211.792 479.927 211.792C479.889 211.89 479.85 211.988 479.81 212.09C479.488 212.645 479.039 213.023 478.56 213.442C478.363 213.616 478.167 213.791 477.972 213.966C477.877 214.052 477.782 214.135 477.683 214.224C477.328 214.547 476.99 214.884 476.653 215.225C474.849 217.042 474.849 217.042 474.007 217.32C473.955 217.423 473.905 217.527 473.851 217.634C473.575 218.178 473.187 218.488 472.73 218.891C472.64 218.971 472.551 219.05 472.459 219.132C471.977 219.556 471.49 219.977 471.002 220.396C470.414 220.902 469.847 221.43 469.28 221.96C466.014 225.021 466.014 225.021 465.038 225.344C464.991 225.444 464.944 225.546 464.896 225.649C464.573 226.257 464.051 226.63 463.524 227.059C463.296 227.252 463.066 227.443 462.837 227.634C462.724 227.728 462.611 227.823 462.492 227.921C462.033 228.311 461.592 228.714 461.147 229.122C460.524 229.691 459.889 230.233 459.229 230.761C458.476 231.364 457.762 231.997 457.055 232.655C456.196 233.454 455.313 234.204 454.394 234.937C453.901 235.342 453.431 235.766 452.963 236.2C452.129 236.961 451.259 237.655 450.364 238.341C449.513 238.997 448.72 239.702 447.933 240.429C447.298 241.002 446.632 241.531 445.965 242.068C445.493 242.455 445.039 242.854 444.587 243.264C443.818 243.962 443.021 244.614 442.21 245.263C441.545 245.812 440.913 246.394 440.282 246.982C439.923 247.276 439.923 247.276 439.564 247.276C439.505 247.453 439.446 247.629 439.385 247.811C439.116 248.081 439.116 248.081 438.768 248.368C438.639 248.478 438.509 248.587 438.377 248.699C438.237 248.817 438.095 248.936 437.95 249.06C436.981 249.908 436.032 250.762 435.148 251.697C434.9 251.913 434.9 251.913 434.541 251.913C434.482 252.089 434.423 252.266 434.362 252.447C434.082 252.724 434.082 252.724 433.723 253.016C432.938 253.68 432.208 254.384 431.481 255.111C431.361 255.229 431.241 255.349 431.117 255.47C430.41 256.174 429.739 256.898 429.084 257.651C426.392 260.734 426.392 260.734 424.472 260.924C423.231 260.99 422.033 261.001 421.019 260.2C420.924 260.113 420.827 260.026 420.728 259.937C420.622 259.855 420.518 259.772 420.409 259.689C419.713 259.136 419.143 258.506 418.567 257.834C417.363 256.477 416.021 255.256 414.62 254.108C414.446 253.965 414.446 253.965 414.27 253.819C414.114 253.692 414.114 253.692 413.956 253.564C413.732 253.339 413.732 253.339 413.732 252.982C413.576 252.911 413.576 252.911 413.415 252.838C413.009 252.624 412.69 252.387 412.342 252.091C412.232 251.998 412.121 251.907 412.008 251.813C411.759 251.556 411.759 251.556 411.759 251.199C411.658 251.156 411.556 251.112 411.452 251.067C410.964 250.8 410.607 250.475 410.2 250.096C409.647 249.593 409.095 249.108 408.496 248.658C407.74 248.086 407.025 247.474 406.309 246.852C405.374 246.041 404.429 245.245 403.464 244.47C402.888 244.001 402.323 243.521 401.758 243.041C401.16 242.535 400.565 242.038 399.919 241.592C399.376 241.21 398.956 240.791 398.484 240.322C398.12 240.007 397.756 239.695 397.386 239.386C397.232 239.258 397.232 239.258 397.076 239.128C396.446 238.602 395.813 238.084 395.176 237.569C394.304 236.863 393.45 236.137 392.598 235.408C391.967 234.868 391.328 234.336 390.68 233.814C389.81 233.113 388.962 232.389 388.113 231.663C387.486 231.127 386.851 230.599 386.207 230.08C385.292 229.342 384.402 228.575 383.514 227.805C382.855 227.234 382.19 226.68 381.51 226.136C380.55 225.364 379.652 224.536 378.751 223.702C378.22 223.21 377.678 222.732 377.129 222.261C376.708 221.895 376.295 221.525 375.881 221.154C375.319 220.649 374.756 220.146 374.187 219.649C374.078 219.552 373.967 219.454 373.852 219.355C373.52 219.071 373.52 219.071 373.011 218.746C373.011 218.629 373.011 218.511 373.011 218.39C372.91 218.345 372.81 218.302 372.706 218.256C372.223 217.996 371.852 217.682 371.441 217.32C371.297 217.195 371.154 217.07 371.007 216.942C370.678 216.607 370.678 216.607 370.678 216.25C370.524 216.184 370.524 216.184 370.368 216.118C369.889 215.852 369.577 215.54 369.199 215.146C368.691 214.629 368.181 214.134 367.629 213.665C366.813 212.966 366.009 212.24 365.297 211.436C365.297 211.318 365.297 211.2 365.297 211.079C365.2 211.038 365.105 210.999 365.006 210.956C363.996 210.403 363.325 209.64 362.606 208.761C362.147 208.281 361.687 207.852 361.171 207.434C360.618 206.965 360.193 206.468 359.736 205.908C359.44 205.608 359.14 205.311 358.839 205.016C357.917 204.112 357.007 203.21 356.166 202.231C355.644 201.643 355.098 201.074 354.555 200.503C353.679 199.576 352.847 198.631 352.047 197.636C351.636 197.139 351.206 196.664 350.766 196.19C349.27 194.571 347.917 192.836 346.558 191.103C346.265 190.73 345.969 190.357 345.673 189.985C344.34 188.303 343.067 186.59 341.84 184.83C341.549 184.412 341.251 183.999 340.955 183.585C340.186 182.489 339.466 181.36 338.747 180.231C338.641 180.065 338.641 180.065 338.532 179.896C337.292 177.959 336.117 175.989 334.98 173.99C334.892 173.837 334.804 173.683 334.714 173.527C328.845 163.202 324.708 151.209 324.731 139.251C324.731 139.043 324.731 138.832 324.73 138.617C324.73 138.174 324.731 137.734 324.731 137.292C324.731 136.628 324.731 135.965 324.73 135.302C324.728 131.602 324.869 128.003 325.417 124.341C325.452 124.098 325.452 124.098 325.488 123.852C326.497 117 328.194 110.333 330.673 103.858C330.813 103.486 330.951 103.113 331.089 102.74C331.717 101.037 332.415 99.3773 333.175 97.7279C333.233 97.6031 333.288 97.48 333.347 97.3517C334.207 95.4812 335.107 93.6374 336.056 91.8097C336.164 91.6029 336.271 91.396 336.381 91.1821C336.966 90.073 337.59 89.0102 338.279 87.9617C338.539 87.5534 338.778 87.1397 339.009 86.7136C339.56 85.7097 340.202 84.7682 340.844 83.8196C341.036 83.536 341.036 83.536 341.23 83.2454C342.625 81.1841 344.08 79.1745 345.593 77.1935C346.066 76.5819 346.066 76.5819 346.461 75.9186C346.579 75.9186 346.698 75.9186 346.82 75.9186C346.879 75.7777 346.879 75.7777 346.938 75.635C347.27 75.043 347.708 74.5545 348.154 74.0463C348.249 73.9357 348.344 73.827 348.443 73.7128C349.229 72.8159 350.032 71.9368 350.845 71.0649C351.252 70.6263 351.649 70.1805 352.043 69.7329C352.844 68.8485 353.681 68.0033 354.523 67.1599C354.659 67.0208 354.795 66.8835 354.935 66.7426C355.063 66.6142 355.192 66.4858 355.323 66.3557C355.439 66.2398 355.554 66.1239 355.674 66.0044C355.969 65.7548 355.969 65.7548 356.327 65.7548C356.327 65.6371 356.327 65.5194 356.327 65.3981C356.553 65.1663 356.553 65.1663 356.887 64.8846C357.02 64.774 357.151 64.6635 357.287 64.5476C357.445 64.4174 357.601 64.2855 357.762 64.15C357.947 63.9913 358.132 63.8326 358.317 63.6739C360.909 61.4396 363.569 59.3409 366.373 57.3741C366.574 57.2314 366.775 57.0888 366.976 56.9479C375.041 51.3008 384.179 46.7324 393.651 43.9276C394.015 43.817 394.378 43.7047 394.738 43.5888C394.862 43.5496 394.986 43.5103 395.115 43.4693C395.454 43.3623 395.793 43.2554 396.132 43.1466C402.196 41.31 408.524 40.3275 414.803 39.5857C415.121 39.5482 415.436 39.509 415.754 39.4698C423.627 38.5051 432.134 38.9919 439.923 40.4345ZM415.167 58.444C414.948 58.4743 414.73 58.5046 414.505 58.5367C406.146 59.7635 397.829 61.93 390.264 65.7369C389.906 65.917 389.541 66.09 389.177 66.2612C385.927 67.7929 382.723 69.6972 379.827 71.8174C379.56 72.0082 379.295 72.1972 379.027 72.388C377.174 73.7128 375.427 75.1179 373.728 76.6318C373.448 76.8779 373.168 77.1222 372.887 77.3664C372.786 77.4556 372.686 77.5448 372.582 77.6357C372.293 77.88 372.293 77.88 371.897 78.1564C371.791 78.242 371.685 78.3275 371.575 78.4149C371.575 78.5326 371.575 78.6503 371.575 78.7715C371.477 78.8126 371.378 78.8518 371.276 78.8946C370.734 79.1977 370.354 79.5829 369.916 80.0197C369.756 80.1784 369.597 80.3353 369.432 80.4994C369.025 80.8631 369.025 80.8631 369.064 81.2679C368.886 81.3268 368.709 81.3856 368.526 81.4462C368.242 81.7173 368.242 81.7173 367.966 82.0596C367.478 82.6302 366.983 83.1901 366.474 83.7429C365.684 84.613 364.947 85.5153 364.22 86.439C364.03 86.6761 363.838 86.9151 363.648 87.1522C361.35 90.0284 359.388 93.0436 357.583 96.2461C357.497 96.3995 357.409 96.551 357.319 96.7079C354.026 102.498 351.478 108.687 349.869 115.147C349.823 115.333 349.774 115.52 349.726 115.711C349.001 118.59 348.448 121.475 348.075 124.419C348.048 124.632 348.022 124.844 347.993 125.063C347.203 131.532 347.417 137.937 348.255 144.39C348.296 144.711 348.296 144.711 348.339 145.039C348.705 147.721 349.351 150.319 350.074 152.926C350.214 153.429 350.346 153.934 350.479 154.44C352.79 163.094 357.145 171.244 362.427 178.448C362.498 178.546 362.57 178.646 362.644 178.748C364.052 180.677 365.607 182.48 367.222 184.241C367.448 184.489 367.672 184.739 367.891 184.992C368.797 186.044 369.769 187.021 370.757 187.998C370.919 188.161 371.08 188.323 371.247 188.489C372.166 189.4 373.1 190.274 374.087 191.108C374.259 191.26 374.433 191.409 374.611 191.565C376.783 193.424 379.065 195.225 381.515 196.711C381.955 196.978 382.387 197.256 382.818 197.54C396.774 206.636 414.371 210.788 430.954 208.939C431.135 208.92 431.316 208.9 431.503 208.879C435.202 208.461 438.818 207.857 442.435 206.978C442.614 206.935 442.793 206.892 442.978 206.848C448.571 205.484 454.02 203.401 459.118 200.737C459.36 200.612 459.36 200.612 459.608 200.484C461.929 199.278 464.16 198.007 466.308 196.518C466.624 196.299 466.943 196.083 467.262 195.871C469.646 194.264 471.907 192.533 474.007 190.573C474.239 190.372 474.47 190.17 474.703 189.97C476.605 188.325 478.479 186.625 480.124 184.721C480.514 184.277 480.916 183.849 481.317 183.419C482.015 182.658 482.674 181.875 483.314 181.067C483.434 180.914 483.434 180.914 483.56 180.757C483.931 180.279 484.281 179.803 484.615 179.299C484.95 178.805 484.95 178.805 485.198 178.567C485.581 178.173 485.868 177.74 486.177 177.284C486.243 177.187 486.31 177.089 486.376 176.989C486.59 176.674 486.801 176.358 487.013 176.041C487.085 175.932 487.158 175.825 487.232 175.713C488.385 173.988 489.485 172.241 490.491 170.426C490.673 170.098 490.859 169.773 491.046 169.447C493.215 165.574 494.842 161.425 496.252 157.229C496.302 157.081 496.352 156.933 496.402 156.781C497.864 152.413 498.756 147.848 499.357 143.287C499.386 143.073 499.414 142.859 499.443 142.638C499.82 139.61 499.87 136.579 499.863 133.531C499.863 132.978 499.863 132.426 499.864 131.873C499.866 128.658 499.75 125.505 499.256 122.324C499.237 122.194 499.217 122.066 499.197 121.932C498.849 119.648 498.428 117.389 497.866 115.147C497.814 114.942 497.814 114.942 497.762 114.734C496.801 110.96 495.46 107.309 493.919 103.735C493.857 103.589 493.796 103.443 493.731 103.293C493.039 101.667 492.285 100.119 491.379 98.5998C491.085 98.0899 490.829 97.5799 490.579 97.0485C489.288 94.4327 487.526 92.0166 485.849 89.6343C485.488 89.1136 485.488 89.1136 485.309 88.757C485.19 88.757 485.072 88.757 484.95 88.757C484.907 88.6607 484.864 88.5644 484.821 88.4664C482.252 83.7286 477.141 78.9766 472.931 75.7402C472.59 75.4621 472.249 75.1839 471.91 74.904C469.522 72.9443 466.968 71.0934 464.32 69.4993C464.114 69.3727 464.114 69.3727 463.904 69.2443C463.447 68.9679 462.987 68.6969 462.526 68.4294C462.23 68.2565 462.23 68.2565 461.927 68.0817C458.546 66.1417 455.047 64.4727 451.404 63.0801C451.246 63.0177 451.087 62.957 450.923 62.8929C448.41 61.9211 445.861 61.1953 443.249 60.5284C442.903 60.4339 442.56 60.3269 442.219 60.2128C441.532 59.9882 440.834 59.8526 440.124 59.7136C439.97 59.685 439.815 59.6547 439.656 59.6226C434.394 58.608 429.266 58.0535 423.905 58.0535C423.265 58.0535 422.624 58.0499 421.984 58.0481C419.684 58.041 417.444 58.1141 415.167 58.444Z" fill="#FDFDFD"/>
<path d="M502.695 50.7571C511.674 58.3727 519.317 67.4663 525.291 77.6415C531.265 87.8162 535.481 98.9213 537.755 110.473" stroke="white" stroke-width="11.6401" stroke-linecap="round" stroke-linejoin="round"/>
<path d="M514.894 28.8152C527.597 38.8386 538.34 51.1729 546.554 65.1633C554.766 79.1502 560.301 94.5382 562.864 110.511" stroke="white" stroke-width="11.6401" stroke-linecap="round" stroke-linejoin="round"/>
<path d="M527.054 6.97062C543.5 19.3319 557.362 34.8752 567.809 52.6694C578.26 70.4685 585.078 90.1534 587.856 110.545" stroke="white" stroke-width="11.6401" stroke-linecap="round" stroke-linejoin="round"/>
<path d="M228.186 361.419C227.062 367.754 224.457 373.016 220.37 377.206C216.283 381.395 211.378 384.307 205.656 385.942C210.765 387.066 214.801 389.569 217.764 393.452C220.727 397.335 222.209 401.882 222.209 407.093C222.209 408.728 222.056 410.312 221.749 411.844C220.216 420.836 215.823 427.988 208.568 433.302C201.313 438.513 192.066 441.118 180.827 441.118H130.708L149.713 333.524H198.146C207.853 333.524 215.363 335.517 220.676 339.502C225.99 343.487 228.646 349.004 228.646 356.055C228.646 357.792 228.493 359.58 228.186 361.419ZM185.271 377.206C189.665 377.206 193.19 376.235 195.847 374.294C198.503 372.352 200.138 369.542 200.751 365.864C200.854 365.251 200.905 364.433 200.905 363.411C200.905 360.448 199.934 358.2 197.993 356.668C196.051 355.033 193.19 354.215 189.41 354.215H172.244L168.259 377.206H185.271ZM195.694 408.319C195.898 407.093 196 406.173 196 405.56C196 402.597 194.927 400.298 192.781 398.663C190.636 396.926 187.673 396.058 183.892 396.058H164.887L160.595 420.274H179.907C184.403 420.274 187.979 419.252 190.636 417.209C193.292 415.165 194.978 412.202 195.694 408.319ZM336.881 333.524L287.069 405.56L280.632 441.118H254.423L260.86 405.56L236.184 333.524H265.918L278.792 378.432L307.454 333.524H336.881ZM489.367 333.524L442.314 441.118H410.587L405.836 370.462L375.642 441.118H343.916L335.639 333.524H363.687L365.373 411.844L398.326 333.524H427.294L431.892 411.384L461.166 333.524H489.367ZM518.911 354.215L515.079 376.593H550.177L546.652 396.364H511.554L507.262 420.427H546.959L543.28 441.118H477.375L496.38 333.524H562.286L558.607 354.215H518.911ZM583.899 421.194H618.231L614.706 441.118H554.165L573.17 333.524H599.379L583.899 421.194ZM650.81 421.194H685.142L681.617 441.118H621.076L640.081 333.524H666.29L650.81 421.194ZM228.952 526.168C230.791 515.541 234.725 506.09 240.753 497.813C246.884 489.435 254.445 482.946 263.437 478.348C272.429 473.648 282.136 471.298 292.558 471.298C305.33 471.298 315.65 474.67 323.518 481.414C331.488 488.158 335.984 497.354 337.006 509.002H308.191C306.863 504.608 304.411 501.288 300.834 499.04C297.36 496.689 293.069 495.514 287.96 495.514C279.888 495.514 272.888 498.324 266.962 503.944C261.036 509.462 257.255 516.87 255.62 526.168C255.109 529.029 254.854 531.532 254.854 533.678C254.854 540.831 256.846 546.502 260.831 550.691C264.816 554.88 270.283 556.975 277.231 556.975C282.238 556.975 286.887 555.8 291.178 553.45C295.572 551.1 299.25 547.728 302.214 543.334H331.028C325.919 554.982 318.205 564.179 307.885 570.922C297.565 577.564 286.018 580.885 273.246 580.885C264.05 580.885 256.029 579.097 249.183 575.52C242.337 571.944 237.075 566.886 233.396 560.347C229.718 553.807 227.879 546.195 227.879 537.51C227.879 533.627 228.236 529.846 228.952 526.168ZM404.707 561.113H364.551L354.742 580.118H327.307L385.242 472.524H415.589L435.514 580.118H407.772L404.707 561.113ZM401.642 541.188L395.358 501.339L374.82 541.188H401.642ZM504.225 472.524C515.362 472.524 523.843 475.079 529.667 480.188C535.491 485.194 538.403 491.734 538.403 499.806C538.403 502.156 538.199 504.353 537.79 506.396C536.564 513.549 533.448 519.935 528.441 525.555C523.434 531.175 516.741 535.16 508.363 537.51L525.682 580.118H496.101L480.928 539.502H474.644L467.44 580.118H441.231L460.237 472.524H504.225ZM510.968 507.469C511.173 505.834 511.275 504.762 511.275 504.251C511.275 500.981 510.202 498.478 508.056 496.741C506.013 494.901 502.947 493.982 498.86 493.982H482.614L477.862 520.957H494.109C498.911 520.957 502.692 519.782 505.451 517.432C508.312 515.082 510.151 511.761 510.968 507.469ZM577.846 581.191C566.198 581.191 556.695 578.688 549.338 573.681C542.083 568.572 538.456 561.369 538.456 552.07C538.456 551.151 538.558 549.771 538.763 547.932H566.044C565.738 551.815 566.657 554.88 568.803 557.128C570.949 559.376 574.219 560.5 578.612 560.5C582.597 560.5 585.714 559.632 587.962 557.895C590.312 556.157 591.487 553.705 591.487 550.538C591.487 547.268 590.005 544.611 587.042 542.568C584.181 540.524 579.685 538.225 573.554 535.671C567.628 533.218 562.775 530.919 558.994 528.774C555.316 526.526 552.097 523.511 549.338 519.731C546.579 515.95 545.2 511.199 545.2 505.477C545.098 498.427 546.835 492.296 550.411 487.085C553.987 481.874 558.943 477.889 565.278 475.13C571.613 472.371 578.868 470.992 587.042 470.992C594.399 470.992 600.938 472.167 606.66 474.517C612.382 476.765 616.827 480.085 619.995 484.479C623.162 488.771 624.746 493.88 624.746 499.806C624.746 501.339 624.695 502.463 624.593 503.178H596.698C596.8 502.769 596.851 502.156 596.851 501.339C596.851 498.478 595.829 496.179 593.786 494.442C591.844 492.602 589.137 491.683 585.663 491.683C581.984 491.683 578.97 492.602 576.62 494.442C574.372 496.179 573.248 498.58 573.248 501.645C573.248 504.711 574.678 507.316 577.539 509.462C580.4 511.505 584.845 513.907 590.874 516.665C596.902 519.424 601.807 521.979 605.587 524.329C609.47 526.679 612.791 529.846 615.55 533.831C618.309 537.714 619.688 542.517 619.688 548.239C619.688 554.574 618.002 560.245 614.63 565.251C611.258 570.258 606.405 574.192 600.07 577.053C593.735 579.812 586.327 581.191 577.846 581.191Z" fill="#FDFD27"/>
<path d="M251.795 671.701V675.965H243.462V698.812H238.494V675.965H230.161V671.701H251.795ZM270.694 671.701H275.623V698.812H270.694V686.801H258.919V698.812H253.99V671.701H258.919V682.537H270.694V671.701ZM280.543 698.812V671.701H297.952V675.887H285.472V682.576H296.583V686.684H285.472V694.626H298.891V698.812H280.543ZM317.134 671.427C321.072 671.427 324.085 672.144 326.171 673.578C328.284 675.013 329.34 677.256 329.34 680.307C329.34 681.898 329.053 683.267 328.479 684.415C327.932 685.536 327.123 686.462 326.054 687.193C324.984 687.897 323.68 688.418 322.142 688.757C320.603 689.096 318.842 689.266 316.86 689.266H314.396V698.812H309.466V672.092C310.614 671.831 311.879 671.662 313.261 671.583C314.67 671.479 315.961 671.427 317.134 671.427ZM317.486 675.691C316.234 675.691 315.204 675.73 314.396 675.808V685.041H316.782C319.155 685.041 320.981 684.715 322.259 684.063C323.537 683.385 324.176 682.12 324.176 680.268C324.176 679.381 324.006 678.638 323.667 678.038C323.328 677.438 322.859 676.969 322.259 676.63C321.659 676.291 320.942 676.056 320.107 675.926C319.299 675.769 318.425 675.691 317.486 675.691ZM332.276 698.812V671.701H349.685V675.887H337.205V682.576H348.315V686.684H337.205V694.626H350.624V698.812H332.276ZM356.67 685.237C356.67 686.723 356.852 688.079 357.217 689.305C357.582 690.505 358.104 691.535 358.782 692.396C359.486 693.23 360.334 693.882 361.325 694.352C362.316 694.821 363.438 695.056 364.689 695.056C365.915 695.056 367.024 694.821 368.015 694.352C369.006 693.882 369.84 693.23 370.518 692.396C371.223 691.535 371.757 690.505 372.122 689.305C372.487 688.079 372.67 686.723 372.67 685.237C372.67 683.75 372.487 682.407 372.122 681.207C371.757 679.981 371.223 678.951 370.518 678.117C369.84 677.256 369.006 676.591 368.015 676.121C367.024 675.652 365.915 675.417 364.689 675.417C363.438 675.417 362.316 675.652 361.325 676.121C360.334 676.591 359.486 677.256 358.782 678.117C358.104 678.977 357.582 680.007 357.217 681.207C356.852 682.407 356.67 683.75 356.67 685.237ZM377.834 685.237C377.834 687.558 377.482 689.605 376.778 691.379C376.1 693.152 375.161 694.639 373.961 695.838C372.787 697.012 371.405 697.899 369.814 698.499C368.223 699.098 366.528 699.398 364.729 699.398C362.929 699.398 361.221 699.098 359.604 698.499C358.013 697.899 356.617 697.012 355.418 695.838C354.244 694.639 353.305 693.152 352.601 691.379C351.897 689.605 351.545 687.558 351.545 685.237C351.545 682.915 351.897 680.881 352.601 679.134C353.305 677.36 354.257 675.874 355.457 674.674C356.683 673.474 358.091 672.574 359.682 671.975C361.273 671.375 362.955 671.075 364.729 671.075C366.502 671.075 368.184 671.375 369.775 671.975C371.366 672.574 372.748 673.474 373.922 674.674C375.122 675.874 376.074 677.36 376.778 679.134C377.482 680.881 377.834 682.915 377.834 685.237ZM389.344 671.427C393.283 671.427 396.295 672.144 398.381 673.578C400.494 675.013 401.55 677.256 401.55 680.307C401.55 681.898 401.263 683.267 400.69 684.415C400.142 685.536 399.333 686.462 398.264 687.193C397.195 687.897 395.891 688.418 394.352 688.757C392.813 689.096 391.053 689.266 389.071 689.266H386.606V698.812H381.677V672.092C382.824 671.831 384.089 671.662 385.471 671.583C386.88 671.479 388.171 671.427 389.344 671.427ZM389.697 675.691C388.445 675.691 387.414 675.73 386.606 675.808V685.041H388.992C391.366 685.041 393.191 684.715 394.469 684.063C395.747 683.385 396.386 682.12 396.386 680.268C396.386 679.381 396.217 678.638 395.878 678.038C395.539 677.438 395.069 676.969 394.469 676.63C393.869 676.291 393.152 676.056 392.318 675.926C391.509 675.769 390.635 675.691 389.697 675.691ZM421.621 694.547V698.812H404.486V671.701H409.415V694.547H421.621ZM423.819 698.812V671.701H441.228V675.887H428.748V682.576H439.858V686.684H428.748V694.626H442.167V698.812H423.819ZM451.749 695.134C453.522 695.134 454.813 694.834 455.622 694.234C456.43 693.635 456.835 692.787 456.835 691.692C456.835 691.039 456.691 690.479 456.404 690.009C456.143 689.54 455.752 689.123 455.231 688.757C454.735 688.366 454.122 688.014 453.392 687.701C452.662 687.362 451.827 687.036 450.888 686.723C449.949 686.384 449.036 686.019 448.15 685.628C447.289 685.21 446.52 684.702 445.842 684.102C445.19 683.502 444.655 682.785 444.238 681.95C443.846 681.116 443.651 680.112 443.651 678.938C443.651 676.486 444.498 674.57 446.194 673.187C447.889 671.779 450.197 671.075 453.118 671.075C454.813 671.075 456.313 671.27 457.617 671.662C458.947 672.027 459.99 672.431 460.747 672.874L459.221 676.865C458.334 676.369 457.356 675.991 456.287 675.73C455.244 675.469 454.161 675.339 453.04 675.339C451.71 675.339 450.666 675.613 449.91 676.16C449.18 676.708 448.815 677.478 448.815 678.469C448.815 679.068 448.932 679.59 449.167 680.033C449.428 680.451 449.78 680.829 450.223 681.168C450.693 681.507 451.227 681.82 451.827 682.107C452.453 682.394 453.131 682.668 453.861 682.928C455.139 683.398 456.274 683.88 457.265 684.376C458.282 684.845 459.13 685.419 459.808 686.097C460.512 686.749 461.047 687.532 461.412 688.444C461.777 689.331 461.959 690.414 461.959 691.692C461.959 694.143 461.086 696.047 459.338 697.403C457.617 698.733 455.087 699.398 451.749 699.398C450.627 699.398 449.597 699.32 448.658 699.164C447.745 699.033 446.924 698.864 446.194 698.655C445.489 698.446 444.877 698.238 444.355 698.029C443.833 697.794 443.416 697.586 443.103 697.403L444.551 693.374C445.255 693.765 446.207 694.156 447.406 694.547C448.606 694.939 450.054 695.134 451.749 695.134ZM484.354 699.398C482.319 699.398 480.494 699.085 478.877 698.459C477.26 697.833 475.891 696.921 474.769 695.721C473.648 694.495 472.787 693.009 472.187 691.261C471.587 689.514 471.287 687.506 471.287 685.237C471.287 682.968 471.626 680.959 472.304 679.212C473.009 677.465 473.961 675.991 475.16 674.791C476.36 673.565 477.768 672.64 479.385 672.014C481.002 671.388 482.737 671.075 484.588 671.075C485.71 671.075 486.727 671.166 487.64 671.349C488.553 671.505 489.348 671.688 490.026 671.896C490.704 672.105 491.265 672.327 491.708 672.561C492.152 672.796 492.465 672.966 492.647 673.07L491.2 677.099C490.574 676.708 489.674 676.343 488.501 676.004C487.353 675.639 486.101 675.456 484.745 675.456C483.571 675.456 482.476 675.665 481.459 676.082C480.442 676.473 479.555 677.073 478.799 677.882C478.068 678.69 477.494 679.707 477.077 680.933C476.66 682.159 476.451 683.58 476.451 685.197C476.451 686.632 476.608 687.949 476.921 689.149C477.26 690.348 477.768 691.392 478.446 692.278C479.125 693.139 479.985 693.817 481.028 694.313C482.072 694.782 483.324 695.017 484.784 695.017C486.531 695.017 487.953 694.847 489.048 694.508C490.144 694.143 490.991 693.804 491.591 693.491L492.921 697.521C492.608 697.729 492.178 697.938 491.63 698.146C491.109 698.355 490.483 698.564 489.752 698.772C489.022 698.955 488.201 699.098 487.288 699.203C486.375 699.333 485.397 699.398 484.354 699.398ZM512.392 671.701H517.321V698.812H512.392V686.801H500.616V698.812H495.687V671.701H500.616V682.537H512.392V671.701ZM526.27 685.237C526.27 686.723 526.452 688.079 526.817 689.305C527.183 690.505 527.704 691.535 528.382 692.396C529.086 693.23 529.934 693.882 530.925 694.352C531.916 694.821 533.038 695.056 534.289 695.056C535.515 695.056 536.624 694.821 537.615 694.352C538.606 693.882 539.44 693.23 540.119 692.396C540.823 691.535 541.357 690.505 541.722 689.305C542.088 688.079 542.27 686.723 542.27 685.237C542.27 683.75 542.088 682.407 541.722 681.207C541.357 679.981 540.823 678.951 540.119 678.117C539.44 677.256 538.606 676.591 537.615 676.121C536.624 675.652 535.515 675.417 534.289 675.417C533.038 675.417 531.916 675.652 530.925 676.121C529.934 676.591 529.086 677.256 528.382 678.117C527.704 678.977 527.183 680.007 526.817 681.207C526.452 682.407 526.27 683.75 526.27 685.237ZM547.434 685.237C547.434 687.558 547.082 689.605 546.378 691.379C545.7 693.152 544.761 694.639 543.561 695.838C542.388 697.012 541.005 697.899 539.414 698.499C537.823 699.098 536.128 699.398 534.329 699.398C532.529 699.398 530.821 699.098 529.204 698.499C527.613 697.899 526.218 697.012 525.018 695.838C523.844 694.639 522.905 693.152 522.201 691.379C521.497 689.605 521.145 687.558 521.145 685.237C521.145 682.915 521.497 680.881 522.201 679.134C522.905 677.36 523.857 675.874 525.057 674.674C526.283 673.474 527.691 672.574 529.282 671.975C530.873 671.375 532.555 671.075 534.329 671.075C536.102 671.075 537.784 671.375 539.375 671.975C540.966 672.574 542.348 673.474 543.522 674.674C544.722 675.874 545.674 677.36 546.378 679.134C547.082 680.881 547.434 682.915 547.434 685.237ZM551.277 671.701H556.206V698.812H551.277V671.701ZM573.184 699.398C571.15 699.398 569.324 699.085 567.707 698.459C566.09 697.833 564.721 696.921 563.6 695.721C562.478 694.495 561.618 693.009 561.018 691.261C560.418 689.514 560.118 687.506 560.118 685.237C560.118 682.968 560.457 680.959 561.135 679.212C561.839 677.465 562.791 675.991 563.991 674.791C565.191 673.565 566.599 672.64 568.216 672.014C569.833 671.388 571.567 671.075 573.419 671.075C574.54 671.075 575.558 671.166 576.47 671.349C577.383 671.505 578.179 671.688 578.857 671.896C579.535 672.105 580.096 672.327 580.539 672.561C580.982 672.796 581.295 672.966 581.478 673.07L580.03 677.099C579.405 676.708 578.505 676.343 577.331 676.004C576.184 675.639 574.932 675.456 573.576 675.456C572.402 675.456 571.306 675.665 570.289 676.082C569.272 676.473 568.385 677.073 567.629 677.882C566.899 678.69 566.325 679.707 565.908 680.933C565.491 682.159 565.282 683.58 565.282 685.197C565.282 686.632 565.438 687.949 565.751 689.149C566.09 690.348 566.599 691.392 567.277 692.278C567.955 693.139 568.816 693.817 569.859 694.313C570.902 694.782 572.154 695.017 573.615 695.017C575.362 695.017 576.783 694.847 577.879 694.508C578.974 694.143 579.822 693.804 580.422 693.491L581.752 697.521C581.439 697.729 581.008 697.938 580.461 698.146C579.939 698.355 579.313 698.564 578.583 698.772C577.853 698.955 577.031 699.098 576.118 699.203C575.206 699.333 574.228 699.398 573.184 699.398ZM584.517 698.812V671.701H601.926V675.887H589.447V682.576H600.557V686.684H589.447V694.626H602.865V698.812H584.517Z" fill="#FDFCFD"/>
<rect x="71.5098" y="684.121" width="15.7772" height="15.7772" fill="#F6DF14"/>
<rect x="118.841" y="668.344" width="15.7772" height="15.7772" fill="#F6DF14"/>
<rect x="87.2861" y="668.344" width="15.7772" height="15.7772" fill="#F6DF14"/>
<rect x="134.618" y="684.121" width="15.7772" height="15.7772" fill="#F6DF14"/>
<rect x="103.064" y="684.121" width="15.7772" height="15.7772" fill="#F6DF14"/>
<rect x="183.002" y="668.344" width="15.7772" height="15.7772" fill="#F6DF14"/>
<rect x="151.447" y="668.344" width="15.7772" height="15.7772" fill="#F6DF14"/>
<rect x="198.779" y="684.121" width="15.7772" height="15.7772" fill="#F6DF14"/>
<rect x="167.226" y="684.121" width="15.7772" height="15.7772" fill="#F6DF14"/>
<rect x="640.062" y="669.045" width="15.7772" height="15.7772" fill="#F6DF14"/>
<rect x="655.84" y="684.822" width="15.7772" height="15.7772" fill="#F6DF14"/>
<rect x="624.285" y="684.822" width="15.7772" height="15.7772" fill="#F6DF14"/>
<rect x="703.171" y="669.045" width="15.7772" height="15.7772" fill="#F6DF14"/>
<rect x="671.616" y="669.045" width="15.7772" height="15.7772" fill="#F6DF14"/>
<rect x="718.948" y="684.822" width="15.7772" height="15.7772" fill="#F6DF14"/>
<rect x="687.394" y="684.822" width="15.7772" height="15.7772" fill="#F6DF14"/>
<rect x="735.777" y="669.045" width="15.7772" height="15.7772" fill="#F6DF14"/>
<rect x="751.555" y="684.822" width="15.7772" height="15.7772" fill="#F6DF14"/>
</svg>
