<svg width="132" height="32" viewBox="0 0 132 32" fill="none" xmlns="http://www.w3.org/2000/svg">
<path d="M36.22 21.18C35.46 21.18 34.7 21.1533 33.94 21.1C33.1933 21.06 32.4133 20.9533 31.6 20.78V7.34C32.24 7.22 32.94 7.13333 33.7 7.08C34.46 7.01333 35.1667 6.98 35.82 6.98C36.7 6.98 37.5067 7.04667 38.24 7.18C38.9867 7.3 39.6267 7.51333 40.16 7.82C40.6933 8.12667 41.1067 8.53333 41.4 9.04C41.7067 9.53333 41.86 10.1467 41.86 10.88C41.86 11.9867 41.3267 12.86 40.26 13.5C41.14 13.8333 41.74 14.2867 42.06 14.86C42.38 15.4333 42.54 16.08 42.54 16.8C42.54 18.2533 42.0067 19.3467 40.94 20.08C39.8867 20.8133 38.3133 21.18 36.22 21.18ZM34.64 14.96V18.54C34.8667 18.5667 35.1133 18.5867 35.38 18.6C35.6467 18.6133 35.94 18.62 36.26 18.62C37.1933 18.62 37.9467 18.4867 38.52 18.22C39.0933 17.9533 39.38 17.46 39.38 16.74C39.38 16.1 39.14 15.6467 38.66 15.38C38.18 15.1 37.4933 14.96 36.6 14.96H34.64ZM34.64 12.58H36.16C37.12 12.58 37.8067 12.46 38.22 12.22C38.6333 11.9667 38.84 11.5667 38.84 11.02C38.84 10.46 38.6267 10.0667 38.2 9.84C37.7733 9.61333 37.1467 9.5 36.32 9.5C36.0533 9.5 35.7667 9.50667 35.46 9.52C35.1533 9.52 34.88 9.53333 34.64 9.56V12.58ZM53.1822 10.48C52.5822 12.5067 51.9555 14.4067 51.3022 16.18C50.6489 17.9533 49.9355 19.6733 49.1622 21.34C48.8822 21.94 48.6022 22.4467 48.3222 22.86C48.0422 23.2867 47.7355 23.6333 47.4022 23.9C47.0689 24.18 46.6889 24.38 46.2622 24.5C45.8489 24.6333 45.3622 24.7 44.8022 24.7C44.3355 24.7 43.9022 24.6533 43.5022 24.56C43.1155 24.48 42.7955 24.3867 42.5422 24.28L43.0622 21.9C43.3689 22.0067 43.6422 22.08 43.8822 22.12C44.1222 22.16 44.3755 22.18 44.6422 22.18C45.1755 22.18 45.5822 22.0333 45.8622 21.74C46.1555 21.46 46.4022 21.0667 46.6022 20.56C45.9222 19.2267 45.2422 17.7333 44.5622 16.08C43.8822 14.4133 43.2422 12.5467 42.6422 10.48H45.8022C45.9355 11 46.0889 11.5667 46.2622 12.18C46.4489 12.78 46.6422 13.3933 46.8422 14.02C47.0422 14.6333 47.2422 15.2333 47.4422 15.82C47.6555 16.4067 47.8555 16.94 48.0422 17.42C48.2155 16.94 48.3955 16.4067 48.5822 15.82C48.7689 15.2333 48.9489 14.6333 49.1222 14.02C49.3089 13.3933 49.4822 12.78 49.6422 12.18C49.8155 11.5667 49.9689 11 50.1022 10.48H53.1822ZM60.7703 14.96C60.5036 15.9733 60.217 16.98 59.9103 17.98C59.617 18.98 59.3036 19.9867 58.9703 21H56.6503C56.4103 20.44 56.1503 19.7733 55.8703 19C55.5903 18.2267 55.297 17.3867 54.9903 16.48C54.697 15.56 54.3903 14.5933 54.0703 13.58C53.7636 12.5533 53.4636 11.52 53.1703 10.48H56.3103C56.417 10.96 56.5303 11.4867 56.6503 12.06C56.7836 12.62 56.917 13.2 57.0503 13.8C57.197 14.4 57.3436 15.0067 57.4903 15.62C57.6503 16.22 57.8103 16.8 57.9703 17.36C58.1436 16.7733 58.3103 16.1733 58.4703 15.56C58.6436 14.9467 58.8036 14.3467 58.9503 13.76C59.1103 13.16 59.257 12.5867 59.3903 12.04C59.537 11.48 59.6636 10.96 59.7703 10.48H61.9303C62.037 10.96 62.157 11.48 62.2903 12.04C62.4236 12.5867 62.5636 13.16 62.7103 13.76C62.857 14.3467 63.0103 14.9467 63.1703 15.56C63.3303 16.1733 63.497 16.7733 63.6703 17.36C63.8303 16.8 63.9903 16.22 64.1503 15.62C64.3103 15.0067 64.457 14.4 64.5903 13.8C64.737 13.2 64.8703 12.62 64.9903 12.06C65.1236 11.4867 65.2436 10.96 65.3503 10.48H68.4503C68.157 11.52 67.8503 12.5533 67.5303 13.58C67.2236 14.5933 66.917 15.56 66.6103 16.48C66.317 17.3867 66.0236 18.2267 65.7303 19C65.4503 19.7733 65.1903 20.44 64.9503 21H62.6303C62.297 19.9867 61.9703 18.98 61.6503 17.98C61.3303 16.98 61.037 15.9733 60.7703 14.96ZM68.5195 15.82C68.5195 14.8867 68.6595 14.0733 68.9395 13.38C69.2329 12.6733 69.6129 12.0867 70.0795 11.62C70.5462 11.1533 71.0795 10.8 71.6795 10.56C72.2929 10.32 72.9195 10.2 73.5595 10.2C75.0529 10.2 76.2329 10.66 77.0995 11.58C77.9662 12.4867 78.3995 13.8267 78.3995 15.6C78.3995 15.7733 78.3929 15.9667 78.3795 16.18C78.3662 16.38 78.3529 16.56 78.3395 16.72H71.5795C71.6462 17.3333 71.9329 17.82 72.4395 18.18C72.9462 18.54 73.6262 18.72 74.4795 18.72C75.0262 18.72 75.5595 18.6733 76.0795 18.58C76.6129 18.4733 77.0462 18.3467 77.3795 18.2L77.7795 20.62C77.6195 20.7 77.4062 20.78 77.1395 20.86C76.8729 20.94 76.5729 21.0067 76.2395 21.06C75.9195 21.1267 75.5729 21.18 75.1995 21.22C74.8262 21.26 74.4529 21.28 74.0795 21.28C73.1329 21.28 72.3062 21.14 71.5995 20.86C70.9062 20.58 70.3262 20.2 69.8595 19.72C69.4062 19.2267 69.0662 18.6467 68.8395 17.98C68.6262 17.3133 68.5195 16.5933 68.5195 15.82ZM75.5195 14.68C75.5062 14.4267 75.4595 14.18 75.3795 13.94C75.3129 13.7 75.1995 13.4867 75.0395 13.3C74.8929 13.1133 74.6995 12.96 74.4595 12.84C74.2329 12.72 73.9462 12.66 73.5995 12.66C73.2662 12.66 72.9795 12.72 72.7395 12.84C72.4995 12.9467 72.2995 13.0933 72.1395 13.28C71.9795 13.4667 71.8529 13.6867 71.7595 13.94C71.6795 14.18 71.6195 14.4267 71.5795 14.68H75.5195ZM84.0992 21.2C83.2326 21.1867 82.5259 21.0933 81.9792 20.92C81.4459 20.7467 81.0192 20.5067 80.6992 20.2C80.3926 19.88 80.1792 19.5 80.0592 19.06C79.9526 18.6067 79.8992 18.1 79.8992 17.54V5.96L82.8792 5.48V16.94C82.8792 17.2067 82.8992 17.4467 82.9392 17.66C82.9792 17.8733 83.0526 18.0533 83.1592 18.2C83.2792 18.3467 83.4459 18.4667 83.6592 18.56C83.8726 18.6533 84.1592 18.7133 84.5192 18.74L84.0992 21.2ZM89.6273 21.2C88.7607 21.1867 88.054 21.0933 87.5073 20.92C86.974 20.7467 86.5473 20.5067 86.2273 20.2C85.9207 19.88 85.7073 19.5 85.5873 19.06C85.4807 18.6067 85.4273 18.1 85.4273 17.54V5.96L88.4073 5.48V16.94C88.4073 17.2067 88.4273 17.4467 88.4673 17.66C88.5073 17.8733 88.5807 18.0533 88.6873 18.2C88.8073 18.3467 88.974 18.4667 89.1873 18.56C89.4007 18.6533 89.6873 18.7133 90.0473 18.74L89.6273 21.2ZM94.4602 15.74C94.4602 14.98 94.5802 14.2667 94.8202 13.6C95.0735 12.92 95.4335 12.3333 95.9002 11.84C96.3668 11.3333 96.9335 10.9333 97.6002 10.64C98.2668 10.3467 99.0268 10.2 99.8802 10.2C100.44 10.2 100.953 10.2533 101.42 10.36C101.887 10.4533 102.34 10.5933 102.78 10.78L102.16 13.16C101.88 13.0533 101.573 12.96 101.24 12.88C100.907 12.8 100.533 12.76 100.12 12.76C99.2402 12.76 98.5802 13.0333 98.1402 13.58C97.7135 14.1267 97.5002 14.8467 97.5002 15.74C97.5002 16.6867 97.7002 17.42 98.1002 17.94C98.5135 18.46 99.2268 18.72 100.24 18.72C100.6 18.72 100.987 18.6867 101.4 18.62C101.813 18.5533 102.193 18.4467 102.54 18.3L102.96 20.74C102.613 20.8867 102.18 21.0133 101.66 21.12C101.14 21.2267 100.567 21.28 99.9402 21.28C98.9802 21.28 98.1535 21.14 97.4602 20.86C96.7668 20.5667 96.1935 20.1733 95.7402 19.68C95.3002 19.1867 94.9735 18.6067 94.7602 17.94C94.5602 17.26 94.4602 16.5267 94.4602 15.74ZM107.672 18.92C107.966 18.92 108.246 18.9133 108.512 18.9C108.779 18.8867 108.992 18.8667 109.152 18.84V16.58C109.032 16.5533 108.852 16.5267 108.612 16.5C108.372 16.4733 108.152 16.46 107.952 16.46C107.672 16.46 107.406 16.48 107.152 16.52C106.912 16.5467 106.699 16.6067 106.512 16.7C106.326 16.7933 106.179 16.92 106.072 17.08C105.966 17.24 105.912 17.44 105.912 17.68C105.912 18.1467 106.066 18.4733 106.372 18.66C106.692 18.8333 107.126 18.92 107.672 18.92ZM107.432 10.2C108.312 10.2 109.046 10.3 109.632 10.5C110.219 10.7 110.686 10.9867 111.032 11.36C111.392 11.7333 111.646 12.1867 111.792 12.72C111.939 13.2533 112.012 13.8467 112.012 14.5V20.7C111.586 20.7933 110.992 20.9 110.232 21.02C109.472 21.1533 108.552 21.22 107.472 21.22C106.792 21.22 106.172 21.16 105.612 21.04C105.066 20.92 104.592 20.7267 104.192 20.46C103.792 20.18 103.486 19.82 103.272 19.38C103.059 18.94 102.952 18.4 102.952 17.76C102.952 17.1467 103.072 16.6267 103.312 16.2C103.566 15.7733 103.899 15.4333 104.312 15.18C104.726 14.9267 105.199 14.7467 105.732 14.64C106.266 14.52 106.819 14.46 107.392 14.46C107.779 14.46 108.119 14.48 108.412 14.52C108.719 14.5467 108.966 14.5867 109.152 14.64V14.36C109.152 13.8533 108.999 13.4467 108.692 13.14C108.386 12.8333 107.852 12.68 107.092 12.68C106.586 12.68 106.086 12.72 105.592 12.8C105.099 12.8667 104.672 12.9667 104.312 13.1L103.932 10.7C104.106 10.6467 104.319 10.5933 104.572 10.54C104.839 10.4733 105.126 10.42 105.432 10.38C105.739 10.3267 106.059 10.2867 106.392 10.26C106.739 10.22 107.086 10.2 107.432 10.2ZM120.247 13.12C119.98 13.0533 119.667 12.9867 119.307 12.92C118.947 12.84 118.56 12.8 118.147 12.8C117.96 12.8 117.734 12.82 117.467 12.86C117.214 12.8867 117.02 12.92 116.887 12.96V21H113.907V11.04C114.44 10.8533 115.067 10.68 115.787 10.52C116.52 10.3467 117.334 10.26 118.227 10.26C118.387 10.26 118.58 10.2733 118.807 10.3C119.034 10.3133 119.26 10.34 119.487 10.38C119.714 10.4067 119.94 10.4467 120.167 10.5C120.394 10.54 120.587 10.5933 120.747 10.66L120.247 13.12ZM124.565 18.86C125.111 18.86 125.498 18.8067 125.725 18.7C125.951 18.5933 126.065 18.3867 126.065 18.08C126.065 17.84 125.918 17.6333 125.625 17.46C125.331 17.2733 124.885 17.0667 124.285 16.84C123.818 16.6667 123.391 16.4867 123.005 16.3C122.631 16.1133 122.311 15.8933 122.045 15.64C121.778 15.3733 121.571 15.06 121.425 14.7C121.278 14.34 121.205 13.9067 121.205 13.4C121.205 12.4133 121.571 11.6333 122.305 11.06C123.038 10.4867 124.045 10.2 125.325 10.2C125.965 10.2 126.578 10.26 127.165 10.38C127.751 10.4867 128.218 10.6067 128.565 10.74L128.045 13.06C127.698 12.94 127.318 12.8333 126.905 12.74C126.505 12.6467 126.051 12.6 125.545 12.6C124.611 12.6 124.145 12.86 124.145 13.38C124.145 13.5 124.165 13.6067 124.205 13.7C124.245 13.7933 124.325 13.8867 124.445 13.98C124.565 14.06 124.725 14.1533 124.925 14.26C125.138 14.3533 125.405 14.46 125.725 14.58C126.378 14.82 126.918 15.06 127.345 15.3C127.771 15.5267 128.105 15.78 128.345 16.06C128.598 16.3267 128.771 16.6267 128.865 16.96C128.971 17.2933 129.025 17.68 129.025 18.12C129.025 19.16 128.631 19.9467 127.845 20.48C127.071 21.0133 125.971 21.28 124.545 21.28C123.611 21.28 122.831 21.2 122.205 21.04C121.591 20.88 121.165 20.7467 120.925 20.64L121.425 18.22C121.931 18.42 122.451 18.58 122.985 18.7C123.518 18.8067 124.045 18.86 124.565 18.86Z" fill="#FDFCFD"/>
<path fill-rule="evenodd" clip-rule="evenodd" d="M16.9579 8.18967L16.9106 8.19015C16.8532 8.19086 16.7957 8.1911 16.7382 8.19134C16.6869 8.19134 16.6353 8.19134 16.5839 8.19158L16.4575 8.19182L16.2174 8.1923L16.0628 8.19278C15.4035 8.19421 14.744 8.19588 14.0847 8.19755C13.9767 8.19803 13.8687 8.19827 13.7608 8.19851L13.6955 8.19875C13.3474 8.1997 12.9991 8.20042 12.6511 8.20113L12.6491 8.20113C12.2889 8.20185 11.9284 8.20281 11.5682 8.204L11.3467 8.20453C11.1989 8.2049 11.051 8.20527 10.9032 8.20543C10.7502 8.20567 10.597 8.20615 10.4439 8.20663C10.3554 8.20711 10.2665 8.20734 10.178 8.20734L10.1269 8.20738C9.84306 8.20752 9.5591 8.20767 9.27572 8.22908L9.20715 8.23481C9.09788 8.24341 8.99602 8.25153 8.89415 8.29834C8.59464 8.46504 8.59464 8.46504 8.31232 9.28516L8.31232 9.28517C8.23483 9.51181 8.15277 9.73583 8.06919 9.95961C8.00889 10.1206 7.94925 10.2818 7.8907 10.4435L7.88313 10.4643L7.88312 10.4643L7.88311 10.4644L7.8831 10.4644L7.88309 10.4644C7.85014 10.5552 7.81714 10.646 7.78339 10.7363L7.75966 10.7993L7.71112 10.9288C7.66715 11.0456 7.62362 11.1628 7.58226 11.281L7.57876 11.2912L7.57875 11.2912C7.57018 11.3161 7.56177 11.3405 7.55353 11.3649L7.49607 11.5318L7.49127 11.5462C7.44663 11.6796 7.40325 11.8094 7.33369 11.9304C7.30147 11.9825 7.27862 12.0257 7.25533 12.084L7.24031 12.1317H7.19677C7.12712 12.2094 7.05594 12.2722 6.97497 12.3352C6.75491 12.5055 6.53768 12.6775 6.35026 12.8907L6.34384 12.8982L6.30434 12.9438C6.17003 13.0942 6.04814 13.2375 5.96216 13.4283L5.94275 13.4734L5.9343 13.4931C5.78542 13.8059 5.7754 14.114 5.77758 14.4596L5.77823 14.5972C5.77867 14.7662 5.77976 14.9353 5.78106 15.1044L5.78259 15.273C5.78476 15.5763 5.78737 15.8797 5.7902 16.183L5.79216 16.4001L5.79543 16.7516C5.79608 16.7956 5.79652 16.8393 5.79695 16.8832C5.79739 16.9453 5.79804 17.0074 5.79869 17.0692L5.79935 17.1261C5.80087 17.3329 5.8185 17.5526 5.94257 17.7174C6.17656 17.9252 6.44669 17.9214 6.73358 17.9168C6.7708 17.9161 6.80802 17.9156 6.84546 17.9154C6.93209 17.9147 7.01872 17.9137 7.10535 17.9125L7.17501 17.9113C7.17414 18.0097 7.17348 18.1081 7.17305 18.2065L7.17239 18.3279C7.17174 18.3869 7.17131 18.4461 7.17109 18.5051C7.17087 18.5244 7.17087 18.5432 7.17087 18.562V18.5622C7.16869 18.7336 7.18458 18.8929 7.24314 19.0532C7.32977 19.1642 7.46233 19.2101 7.59053 19.2349L7.63907 19.2428C7.98168 19.3006 8.33539 19.2868 8.67996 19.2547L8.71534 19.2514L8.74222 19.2488L8.76256 19.2471C8.87165 19.2384 8.97769 19.2298 9.07525 19.1709C9.17037 19.0818 9.17037 19.0818 9.22108 18.7472V17.8636H11.3107C11.3107 17.8824 11.3107 17.8956 11.3134 17.9081C11.3197 17.9368 11.3403 17.9625 11.4082 18.047L11.4082 18.047L11.4454 18.0905L11.4805 18.1315C11.6104 18.2467 11.7208 18.2806 11.8845 18.282L11.9541 18.2813C12.0323 18.2815 12.1104 18.2815 12.1886 18.2813C12.2445 18.2808 12.3004 18.2806 12.3562 18.2806C12.4881 18.2806 12.6198 18.2803 12.7514 18.2796C12.8879 18.2789 13.0244 18.2784 13.1609 18.2784C13.2793 18.2784 13.3977 18.2784 13.5161 18.2782H13.5161H13.5162H13.5162H13.5162C13.5725 18.2779 13.6291 18.2777 13.6857 18.2777L13.7667 18.2775H13.7668H13.7669H13.767C13.821 18.2774 13.875 18.2773 13.929 18.277C13.9543 18.277 13.9789 18.2768 14.0035 18.2765H14.0112C14.0907 18.2765 14.1699 18.2765 14.2492 18.2696C14.427 18.2192 14.5206 18.0979 14.6192 17.9352L14.6628 17.8397H16.8177C16.8177 17.9118 16.812 17.9981 16.8057 18.0923C16.7846 18.4098 16.7576 18.8173 16.9239 19.0728L16.9239 19.0728C16.9768 19.1168 17.0129 19.1469 17.0538 19.1674C17.1417 19.2113 17.2518 19.2109 17.5985 19.2096L17.6363 19.2093L17.6366 19.2093H17.6367H17.6368H17.6368C17.6872 19.2089 17.7377 19.2085 17.7881 19.2087C17.8218 19.2087 17.8559 19.2091 17.8903 19.2094H17.8904H17.8905H17.8907H17.8908C18.1751 19.2121 18.4756 19.2149 18.7332 19.0816V19.0338H18.7767C18.8594 18.8979 18.8688 18.7413 18.8688 18.581C18.8683 18.5516 18.8683 18.5514 18.8681 18.523V18.5229V18.5229L18.8681 18.5225C18.8679 18.4595 18.8677 18.3962 18.867 18.3331L18.8662 18.202L18.8662 18.2006V18.2005V18.2005V18.2004V18.2004C18.8657 18.0996 18.8653 17.9987 18.8646 17.898L18.8638 17.8158C19.0753 17.8304 19.2863 17.8428 19.4983 17.843C19.524 17.8428 19.549 17.8428 19.574 17.8428L19.5999 17.8429C19.8759 17.844 20.1841 17.8453 20.4042 17.636C20.5407 17.476 20.5448 17.2959 20.5437 17.0855C20.5435 17.0559 20.5431 17.027 20.5426 16.9981C20.5422 16.9197 20.5418 16.8414 20.5411 16.7631C20.5402 16.6597 20.5396 16.5565 20.5394 16.4531C20.5392 16.1438 20.5379 15.8345 20.5361 15.5252L20.5361 15.5245C20.5352 15.3631 20.5344 15.2016 20.5342 15.0402C20.5337 14.8957 20.5333 14.7514 20.5324 14.6069C20.5322 14.5458 20.5318 14.4847 20.5313 14.4238V14.4234C20.5313 14.3368 20.5313 14.2502 20.5307 14.1639L20.53 14.0839C20.5311 13.8279 20.4841 13.5996 20.3637 13.3777L20.34 13.3364C20.0882 12.8915 19.7379 12.5604 19.3461 12.2691L19.3363 12.2619L19.3067 12.2399L19.2312 12.184C18.9924 12.0116 18.8864 11.7391 18.7876 11.4556C18.7064 11.2154 18.7064 11.2154 18.4809 10.6288C18.4025 10.4251 18.3246 10.2211 18.2467 10.0172L18.1964 9.88581L18.1964 9.88575L18.1964 9.88568L18.1964 9.88562L18.1964 9.88556C18.1629 9.79808 18.1295 9.71059 18.0958 9.62311L18.0638 9.54052C18.0144 9.41312 17.965 9.28567 17.9195 9.15644L17.8929 9.07808C17.8135 8.84352 17.7292 8.59457 17.5795 8.40605C17.4383 8.27016 17.2774 8.19492 17.0893 8.18848C17.0456 8.18895 17.0018 8.18943 16.9579 8.18967ZM17.3667 9.02556L17.3497 8.9821C15.4902 8.97899 13.6306 8.9821 11.7711 8.99093C11.5848 8.99189 11.3982 8.99285 11.2117 8.99356C10.9803 8.99452 10.7487 8.99571 10.5173 8.99691L10.1593 8.99882L9.82385 9.00025C9.78315 9.00073 9.74223 9.00097 9.70152 9.00097C9.64493 9.0012 9.58834 9.00144 9.53174 9.00192L9.48081 9.00216L9.47158 9.00218C9.39468 9.00237 9.327 9.00253 9.25247 9.02986C9.17738 9.09578 9.14255 9.16814 9.10468 9.26248L9.08378 9.31646C9.01979 9.4779 8.95928 9.64078 8.90007 9.80462C8.8659 9.9011 8.83172 9.99735 8.79298 10.0919C8.71767 10.2706 8.64888 10.4516 8.58097 10.6338C8.48563 10.8906 8.38942 11.1463 8.28799 11.4002C8.27972 11.4203 8.27166 11.4399 8.26383 11.4594L8.24184 11.5141C8.21006 11.5925 8.19809 11.6677 8.1859 11.7525C9.21025 11.7544 10.2344 11.7494 11.2587 11.7437L11.9918 11.7396L13.3013 11.7324C13.7249 11.7303 14.1487 11.7279 14.5723 11.7255C14.5995 11.7255 14.6258 11.7253 14.6521 11.725L14.6522 11.725L15.0494 11.7229C16.1645 11.7169 17.2794 11.7109 18.3945 11.7047C18.3945 11.657 18.3945 11.657 18.3712 11.5987C18.3166 11.4735 18.2637 11.3482 18.2158 11.2197C18.1407 11.0169 18.0637 10.8153 17.9857 10.614L17.9659 10.5629C17.8484 10.2586 17.73 9.95484 17.6111 9.65129L17.5688 9.54297L17.4703 9.29066L17.4583 9.26002L17.4435 9.22236L17.4118 9.14101L17.3667 9.02556ZM15.2915 13.8026H15.3609C15.9408 13.8028 16.5209 13.8033 17.1007 13.804V14.6638C15.6289 14.6795 14.1568 14.691 12.6847 14.6998L12.2309 14.7027C11.1623 14.7094 10.0938 14.713 9.02526 14.7115V13.8279L9.02872 13.8279H9.02874H9.02877H9.02879C9.60226 13.8238 10.1757 13.8198 10.749 13.8159C10.7701 13.8159 10.7912 13.8157 10.8129 13.8155L10.8149 13.8155C12.3073 13.8059 13.7994 13.8019 15.2915 13.8026ZM11.817 16.8063L11.7843 16.8066C11.6111 16.8073 11.5651 16.9539 11.5616 17.1283V17.1854C11.5612 17.2257 11.561 17.2658 11.5608 17.3062C11.561 17.3695 11.561 17.4325 11.5601 17.4956C11.5595 17.5372 11.559 17.5785 11.5588 17.6198V17.6793C11.5586 17.6986 11.5582 17.7175 11.5577 17.7361L11.5584 17.7901C11.5582 17.8756 11.5895 17.9377 11.6415 18.0014C11.6623 18.0172 11.676 18.0275 11.6913 18.0344C11.7208 18.0477 11.7561 18.0481 11.8594 18.0492C11.8841 18.0485 11.908 18.048 11.9318 18.0475L11.9321 18.0475C12.0129 18.0478 12.0936 18.0478 12.1746 18.0468C12.2471 18.0461 12.3193 18.0456 12.3918 18.0454C12.5131 18.0454 12.6343 18.0447 12.7556 18.0435C12.9282 18.0418 13.1006 18.0408 13.2729 18.0404C13.3532 18.0402 13.4334 18.0398 13.5137 18.0395L13.6341 18.0389L13.6375 18.0389L13.6379 18.0389C13.6661 18.0387 13.6934 18.0385 13.7209 18.0385C13.8049 18.038 13.8889 18.0375 13.973 18.0368L14.0496 18.0361L14.0518 18.036C14.0758 18.0358 14.0993 18.0356 14.1227 18.0356L14.1889 18.0349C14.2792 18.0342 14.3151 18.0294 14.382 17.9589C14.4294 17.877 14.4333 17.8321 14.4338 17.7375L14.4325 17.68C14.4325 17.6394 14.4322 17.5988 14.432 17.5582C14.4309 17.4944 14.4301 17.4306 14.4296 17.3666L14.429 17.2412L14.429 17.2398V17.2398C14.4288 17.22 14.4285 17.2007 14.4285 17.1815L14.4285 17.1409C14.4286 17.036 14.4287 16.9434 14.3615 16.857C14.3276 16.8353 14.307 16.8222 14.2847 16.8142C14.2504 16.8018 14.2117 16.8015 14.1138 16.8006L14.0413 16.8013L14.0408 16.8013C13.96 16.8011 13.8794 16.8009 13.7988 16.8013C13.7263 16.8018 13.6539 16.802 13.5814 16.802C13.4601 16.802 13.3389 16.8023 13.2177 16.803C13.0764 16.8037 12.9351 16.8042 12.7939 16.8042C12.6569 16.8042 12.52 16.8042 12.3831 16.8047L12.2525 16.8049C12.1685 16.8049 12.0845 16.8052 12.0002 16.8056C11.9743 16.8056 11.9489 16.8059 11.9236 16.8061C11.8988 16.8061 11.8746 16.8061 11.8507 16.8059L11.817 16.8063ZM7.24906 13.8467L7.37836 13.8472C7.74643 13.8488 8.11386 13.8603 8.4815 13.8751V14.711C7.87638 14.733 7.09865 14.6945 6.60955 14.2556C6.58757 14.2329 6.5658 14.2095 6.54425 14.1856L6.52228 14.1624L6.5103 14.1498C6.47895 14.1139 6.47895 14.1139 6.43542 14.0423C6.43979 14.0021 6.44185 13.9831 6.44481 13.9642C6.44745 13.9474 6.45082 13.9307 6.45718 13.899L6.45719 13.899C6.72209 13.8496 6.98089 13.8445 7.24906 13.8467ZM18.4748 13.8235C18.2268 13.8245 17.9791 13.8257 17.7312 13.8273V14.6632C18.2588 14.641 18.8167 14.5839 19.3082 14.3568L19.3637 14.3289C19.3911 14.3157 19.4186 14.3019 19.4453 14.2871C19.5783 14.186 19.7033 14.0709 19.7555 13.899C19.6752 13.8323 19.6114 13.819 19.5115 13.8185L19.4584 13.8192C19.3992 13.8192 19.3398 13.8192 19.2803 13.8197C19.2381 13.8202 19.1957 13.8204 19.1532 13.8206C19.0422 13.8206 18.9312 13.8211 18.8202 13.8218C18.705 13.8228 18.5899 13.8233 18.4748 13.8235Z" fill="#FDFCFD"/>
<path d="M7.37106 14.5198C7.37106 14.5435 7.37106 14.5671 7.37106 14.5915C7.18452 14.5709 7.18452 14.5709 7.10986 14.5198C7.20259 14.4921 7.27703 14.5017 7.37106 14.5198Z" fill="#FDFCFD"/>
<path d="M15.1162 0.210998C15.1402 0.215876 15.1643 0.220754 15.189 0.225632C15.3615 0.260805 15.5331 0.299315 15.7047 0.339365C15.7295 0.345014 15.7542 0.350918 15.7798 0.356823C16.782 0.592249 17.7469 0.964001 18.6671 1.45513C18.7179 1.48209 18.769 1.50905 18.8198 1.53575C19.4239 1.8523 19.9837 2.22739 20.5305 2.64998C20.5557 2.66923 20.5809 2.68849 20.6068 2.70826C20.9839 2.99785 21.3387 3.31441 21.6791 3.6533C21.724 3.69591 21.7685 3.73237 21.818 3.76831C21.8987 3.82813 21.9554 3.90284 22.0178 3.98397C22.0607 4.0366 22.1056 4.08102 22.1548 4.1262C22.2356 4.20091 22.3034 4.28127 22.3719 4.36907C22.4152 4.42324 22.4608 4.47382 22.5079 4.52414C22.5837 4.60552 22.6543 4.68999 22.7238 4.77805C22.7704 4.83684 22.8187 4.89384 22.8669 4.95083C22.9757 5.08228 23.0748 5.22015 23.1741 5.35981C23.2306 5.43889 23.289 5.51591 23.3481 5.59267C23.4366 5.71 23.5143 5.8322 23.5901 5.95954C23.6395 6.0417 23.6906 6.12206 23.7424 6.20267C24.2845 7.05323 24.7221 7.97876 25.0738 8.93997C25.0828 8.96436 25.0917 8.98875 25.1009 9.01391C25.3015 9.56718 25.4815 10.141 25.5967 10.723C25.615 10.8134 25.6374 10.9017 25.6609 10.9908C25.8325 11.6837 25.9006 12.4123 25.9684 13.1247C25.9702 13.1453 25.9724 13.1658 25.9742 13.1871C25.9898 13.3573 25.9966 13.5263 25.9983 13.6973C25.9987 13.7242 25.999 13.7514 25.9992 13.7792C26.0086 14.839 25.9389 15.8803 25.5912 16.8805C25.5656 16.9581 25.5439 17.0361 25.5225 17.1152C25.4766 17.2805 25.4192 17.4381 25.3563 17.5968C25.3452 17.625 25.3342 17.6533 25.3226 17.6826C25.2393 17.8936 25.1529 18.1033 25.0649 18.3123C25.0536 18.3398 25.042 18.367 25.0303 18.395C24.9714 18.5334 24.9097 18.6684 24.8401 18.8006C24.8156 18.8484 24.7937 18.8967 24.7723 18.9462C24.7245 19.0517 24.668 19.1508 24.6108 19.2507C24.5658 19.3293 24.5218 19.4083 24.4794 19.4887C24.3314 19.769 24.1701 20.0378 24.0039 20.3059C23.9733 20.3552 23.9429 20.405 23.9128 20.4548C23.7017 20.8042 23.4724 21.1377 23.2377 21.4686C23.2214 21.4917 23.2049 21.5148 23.1882 21.5387C23.104 21.6573 23.0183 21.7746 22.9321 21.8917C22.9013 21.9336 22.8704 21.9757 22.8398 22.018C22.6586 22.2676 22.47 22.5099 22.2737 22.7456C22.2294 22.7988 22.1861 22.8524 22.143 22.9063C21.9874 23.1009 21.8278 23.2917 21.6664 23.4804C21.5908 23.569 21.5192 23.6604 21.4486 23.7536C21.397 23.8144 21.397 23.8144 21.3544 23.8563C21.3389 23.8563 21.3234 23.8563 21.3074 23.8563C21.2982 23.8786 21.2982 23.8786 21.289 23.9017C21.2579 23.9638 21.2238 24.0054 21.1779 24.0555C21.1527 24.0832 21.1527 24.0832 21.127 24.1114C21.0997 24.141 21.0997 24.141 21.072 24.1713C21.0534 24.1916 21.0348 24.2118 21.0155 24.2329C20.9761 24.2758 20.9366 24.3186 20.8973 24.3615C20.8366 24.4275 20.7763 24.4935 20.716 24.5597C20.6777 24.6013 20.6395 24.6429 20.6011 24.6847C20.583 24.7045 20.5649 24.7245 20.5461 24.7448C20.5293 24.763 20.5126 24.7813 20.4952 24.8C20.4804 24.8162 20.4656 24.8321 20.4503 24.8488C20.4128 24.8832 20.4128 24.8832 20.3657 24.8832C20.3608 24.8973 20.3556 24.9114 20.3504 24.9261C20.3081 25.0059 20.2492 25.0603 20.1864 25.1207C20.1605 25.1458 20.1348 25.171 20.1092 25.1962C20.0967 25.2085 20.0842 25.2205 20.0713 25.2334C20.0246 25.2798 19.9804 25.3284 19.9361 25.3774C19.6993 25.639 19.6993 25.639 19.5889 25.6791C19.5821 25.694 19.5755 25.7089 19.5684 25.7243C19.5322 25.8026 19.4813 25.8472 19.4213 25.9053C19.4095 25.9168 19.3978 25.9281 19.3858 25.9399C19.3224 26.001 19.2586 26.0616 19.1946 26.1219C19.1174 26.1948 19.043 26.2708 18.9686 26.3471C18.5399 26.7879 18.5399 26.7879 18.4119 26.8344C18.4058 26.8488 18.3996 26.8634 18.3933 26.8783C18.3509 26.9658 18.2824 27.0195 18.2132 27.0814C18.1833 27.1091 18.1532 27.1366 18.123 27.164C18.1082 27.1776 18.0934 27.1912 18.0779 27.2054C18.0176 27.2616 17.9597 27.3196 17.9013 27.3784C17.8196 27.4603 17.7363 27.5383 17.6497 27.6143C17.5508 27.7011 17.4571 27.7923 17.3643 27.887C17.2516 28.002 17.1358 28.1101 17.0152 28.2156C16.9505 28.2739 16.8888 28.335 16.8274 28.3974C16.7179 28.507 16.6038 28.6069 16.4863 28.7057C16.3747 28.8002 16.2707 28.9016 16.1673 29.0063C16.084 29.0888 15.9966 29.165 15.9091 29.2423C15.8472 29.298 15.7876 29.3555 15.7283 29.4146C15.6273 29.5149 15.5228 29.6089 15.4164 29.7024C15.329 29.7814 15.2462 29.8651 15.1633 29.9498C15.1162 29.9922 15.1162 29.9922 15.0692 29.9922C15.0614 30.0176 15.0536 30.043 15.0456 30.0692C15.0103 30.108 15.0103 30.108 14.9646 30.1493C14.9477 30.1653 14.9307 30.1809 14.9133 30.1971C14.895 30.214 14.8764 30.2312 14.8573 30.2489C14.7302 30.3712 14.6056 30.4941 14.4896 30.6287C14.4571 30.6597 14.4571 30.6597 14.41 30.6597C14.4023 30.6851 14.3945 30.7106 14.3865 30.7367C14.3498 30.7765 14.3498 30.7765 14.3027 30.8186C14.1996 30.9141 14.1038 31.0156 14.0084 31.1203C13.9926 31.1372 13.9769 31.1544 13.9606 31.1719C13.8679 31.2733 13.7798 31.3776 13.6939 31.4859C13.3406 31.9298 13.3406 31.9298 13.0887 31.9573C12.9258 31.9668 12.7686 31.9683 12.6355 31.853C12.6231 31.8404 12.6104 31.8279 12.5974 31.815C12.5835 31.8032 12.5699 31.7914 12.5555 31.7793C12.4642 31.6998 12.3893 31.6091 12.3137 31.5123C12.1558 31.317 11.9797 31.1411 11.7959 30.9758C11.773 30.9552 11.773 30.9552 11.75 30.9342C11.7295 30.9159 11.7295 30.9159 11.7088 30.8975C11.6793 30.8651 11.6793 30.8651 11.6793 30.8138C11.6589 30.8035 11.6589 30.8035 11.6377 30.793C11.5845 30.7622 11.5426 30.728 11.4969 30.6854C11.4825 30.672 11.4679 30.6589 11.4531 30.6453C11.4204 30.6084 11.4204 30.6084 11.4204 30.557C11.4072 30.5509 11.3938 30.5444 11.3801 30.538C11.3161 30.4995 11.2693 30.4528 11.2158 30.3981C11.1433 30.3257 11.0708 30.2559 10.9922 30.1912C10.8931 30.1088 10.7992 30.0207 10.7052 29.9311C10.5826 29.8143 10.4585 29.6998 10.3319 29.5881C10.2563 29.5206 10.1822 29.4515 10.108 29.3825C10.0296 29.3096 9.95147 29.2379 9.86672 29.1737C9.7954 29.1188 9.74031 29.0585 9.6784 28.9909C9.63061 28.9455 9.58283 28.9006 9.53433 28.8562C9.51409 28.8377 9.51409 28.8377 9.49361 28.8189C9.41098 28.7432 9.32789 28.6687 9.24432 28.5945C9.12991 28.4929 9.01786 28.3884 8.90604 28.2834C8.82318 28.2056 8.73938 28.1291 8.65439 28.0539C8.54022 27.953 8.42888 27.8487 8.31753 27.7442C8.23514 27.667 8.15181 27.591 8.0673 27.5163C7.94724 27.41 7.83048 27.2996 7.71396 27.1887C7.62756 27.1065 7.54023 27.0267 7.45101 26.9484C7.32507 26.8372 7.20713 26.7181 7.08896 26.5979C7.01928 26.5271 6.94819 26.4583 6.87615 26.3905C6.82083 26.3379 6.76669 26.2845 6.71231 26.231C6.63863 26.1584 6.56471 26.086 6.49009 26.0144C6.47573 26.0005 6.46114 25.9864 6.44607 25.972C6.40252 25.9312 6.40252 25.9312 6.33567 25.8845C6.33567 25.8675 6.33567 25.8506 6.33567 25.8331C6.32248 25.8267 6.3093 25.8205 6.29565 25.8139C6.23232 25.7764 6.18359 25.7312 6.12969 25.6791C6.11085 25.6611 6.09202 25.6431 6.07272 25.6246C6.02964 25.5764 6.02964 25.5764 6.02964 25.525C6.0094 25.5155 6.0094 25.5155 5.98891 25.506C5.92606 25.4678 5.8851 25.4228 5.83543 25.3661C5.76881 25.2917 5.70196 25.2203 5.62945 25.1528C5.52234 25.0521 5.41688 24.9476 5.32343 24.8318C5.32343 24.8149 5.32343 24.798 5.32343 24.7805C5.31072 24.7746 5.29824 24.7689 5.28529 24.7628C5.15276 24.6832 5.06472 24.5733 4.97032 24.4467C4.91006 24.3777 4.8498 24.3158 4.782 24.2557C4.70949 24.1882 4.6537 24.1166 4.59368 24.036C4.55483 23.9928 4.51552 23.95 4.47597 23.9076C4.35498 23.7774 4.23563 23.6475 4.12522 23.5066C4.05672 23.4219 3.98516 23.34 3.91383 23.2578C3.79895 23.1243 3.68972 22.9882 3.58473 22.845C3.53083 22.7733 3.47433 22.7051 3.41666 22.6368C3.22033 22.4036 3.04283 22.1538 2.8644 21.9043C2.82603 21.8506 2.78719 21.797 2.74834 21.7433C2.57344 21.5012 2.4063 21.2545 2.24529 21.0011C2.20715 20.941 2.16807 20.8815 2.12923 20.8219C2.02824 20.664 1.93385 20.5015 1.83945 20.339C1.82556 20.3151 1.82556 20.3151 1.8112 20.2907C1.64854 20.0119 1.49435 19.7282 1.3451 19.4404C1.33357 19.4183 1.32203 19.3963 1.31026 19.3737C0.54002 17.8872 -0.00282242 16.1604 0.000237832 14.4387C0.000237832 14.4087 0.000237603 14.3784 2.19855e-06 14.3473C2.19855e-06 14.2836 0.000237832 14.2202 0.000237832 14.1566C0.000237832 14.0611 0.000237603 13.9656 2.19855e-06 13.87C-0.000233205 13.3373 0.0183641 12.8192 0.0901623 12.2919C0.0948704 12.257 0.094871 12.257 0.0995791 12.2216C0.231876 11.2349 0.454567 10.275 0.779896 9.34279C0.798257 9.28913 0.816383 9.23548 0.83451 9.18182C0.916901 8.93664 1.00847 8.69762 1.10828 8.46014C1.11582 8.44217 1.12312 8.42445 1.13088 8.40597C1.24364 8.13665 1.36181 7.87119 1.48634 7.60804C1.50047 7.57825 1.51459 7.54847 1.52895 7.51767C1.60569 7.35798 1.68761 7.20496 1.77801 7.054C1.81214 6.99521 1.84345 6.93565 1.87382 6.87429C1.94609 6.72975 2.03036 6.59419 2.11464 6.45761C2.13982 6.41679 2.13983 6.41679 2.16525 6.37494C2.34839 6.07815 2.5393 5.78881 2.73775 5.50358C2.7999 5.41552 2.7999 5.41552 2.85169 5.32002C2.86722 5.32002 2.88276 5.32002 2.89877 5.32002C2.90654 5.29973 2.90653 5.29973 2.9143 5.2792C2.95785 5.19396 3.01529 5.12361 3.07391 5.05045C3.08638 5.03453 3.09886 5.01887 3.11181 5.00244C3.21491 4.8733 3.32038 4.74673 3.42701 4.62119C3.48045 4.55803 3.53247 4.49384 3.58426 4.4294C3.68925 4.30206 3.79919 4.18037 3.90959 4.05894C3.92748 4.03891 3.94537 4.01914 3.96373 3.99886C3.98045 3.98038 3.9974 3.96189 4.01458 3.94315C4.02988 3.92646 4.04495 3.90977 4.06072 3.89257C4.09933 3.85663 4.09933 3.85663 4.14641 3.85663C4.14641 3.83969 4.14641 3.82274 4.14641 3.80528C4.17607 3.77191 4.17607 3.77191 4.21985 3.73134C4.23727 3.71543 4.25446 3.69951 4.27235 3.68282C4.29307 3.66408 4.31355 3.64508 4.33473 3.62557C4.35898 3.60272 4.38322 3.57987 4.40747 3.55702C4.74763 3.23533 5.09673 2.93316 5.46467 2.64998C5.49104 2.62944 5.5174 2.6089 5.54377 2.58862C6.60214 1.77554 7.80129 1.11778 9.04422 0.713941C9.09201 0.698024 9.13956 0.681849 9.18688 0.665162C9.20312 0.659513 9.21936 0.653865 9.23631 0.64796C9.2808 0.632556 9.3253 0.617152 9.36979 0.601491C10.1655 0.337055 10.996 0.195594 11.8199 0.0887925C11.8615 0.083401 11.903 0.0777529 11.9446 0.0721047C12.9778 -0.0667887 14.0941 0.00329985 15.1162 0.210998ZM11.8677 2.80402C11.8389 2.80838 11.8102 2.81275 11.7808 2.81737C10.6838 2.994 9.59248 3.30593 8.59978 3.85406C8.5527 3.87999 8.50491 3.9049 8.45713 3.92954C8.03057 4.15008 7.61014 4.42427 7.2302 4.72953C7.19513 4.757 7.16029 4.78421 7.12521 4.81168C6.88204 5.00244 6.65275 5.20474 6.42983 5.42271C6.3931 5.45814 6.35638 5.49331 6.31942 5.52849C6.30624 5.54132 6.29306 5.55416 6.2794 5.56725C6.2415 5.60243 6.2415 5.60242 6.18948 5.64222C6.17559 5.65454 6.1617 5.66687 6.14734 5.67945C6.14734 5.69639 6.14734 5.71333 6.14734 5.73079C6.13439 5.7367 6.12145 5.74235 6.10803 5.74851C6.03694 5.79215 5.98703 5.84761 5.92959 5.91051C5.90864 5.93336 5.88769 5.95595 5.86603 5.97957C5.8126 6.03194 5.8126 6.03194 5.81778 6.09022C5.79447 6.09869 5.77117 6.10717 5.74716 6.11589C5.70996 6.15492 5.70996 6.15492 5.67371 6.20421C5.60968 6.28637 5.54471 6.36698 5.47785 6.44657C5.37428 6.57185 5.27752 6.70176 5.18219 6.83475C5.15723 6.8689 5.13204 6.9033 5.10709 6.93744C4.80554 7.35156 4.54801 7.7857 4.31119 8.24679C4.29989 8.26887 4.28836 8.29069 4.27659 8.31329C3.84438 9.1469 3.51011 10.038 3.29895 10.9682C3.29283 10.9949 3.28648 11.0218 3.28012 11.0493C3.18502 11.4639 3.11251 11.8793 3.06355 12.3032C3.06002 12.3337 3.05649 12.3643 3.05272 12.3959C2.94914 13.3273 2.97716 14.2495 3.08709 15.1786C3.0925 15.2248 3.0925 15.2248 3.09815 15.2721C3.14618 15.6582 3.23092 16.0323 3.32579 16.4076C3.34415 16.48 3.36157 16.5527 3.37899 16.6256C3.68219 17.8715 4.25375 19.045 4.94678 20.0823C4.9562 20.0964 4.96561 20.1108 4.97527 20.1254C5.16006 20.4032 5.36415 20.6627 5.57602 20.9164C5.60568 20.9521 5.6351 20.988 5.66382 21.0245C5.7827 21.1759 5.91029 21.3166 6.04 21.4573C6.06118 21.4807 6.08237 21.5041 6.10426 21.5279C6.22479 21.6591 6.34744 21.7849 6.47691 21.9051C6.49951 21.9269 6.52234 21.9485 6.54565 21.9708C6.83072 22.2386 7.13015 22.4979 7.45172 22.7117C7.50939 22.7502 7.56612 22.7903 7.62262 22.8311C9.45406 24.1407 11.7631 24.7387 13.9392 24.4724C13.963 24.4696 13.9868 24.4668 14.0112 24.4637C14.4967 24.4036 14.9712 24.3166 15.4458 24.19C15.4693 24.1838 15.4929 24.1777 15.5171 24.1713C16.2511 23.9749 16.966 23.675 17.6351 23.2914C17.6668 23.2735 17.6668 23.2735 17.6993 23.255C18.0039 23.0814 18.2968 22.8984 18.5786 22.684C18.62 22.6524 18.6619 22.6214 18.7038 22.5908C19.0166 22.3595 19.3133 22.1102 19.5889 21.8281C19.6193 21.799 19.6496 21.77 19.6802 21.7413C19.9298 21.5043 20.1758 21.2596 20.3916 20.9854C20.4427 20.9215 20.4955 20.8599 20.5482 20.798C20.6398 20.6884 20.7261 20.5757 20.8102 20.4594C20.826 20.4373 20.826 20.4373 20.8424 20.4147C20.8912 20.3459 20.9371 20.2774 20.9809 20.2047C21.0249 20.1336 21.0249 20.1336 21.0574 20.0995C21.1077 20.0427 21.1454 19.9803 21.1859 19.9146C21.1946 19.9007 21.2033 19.8866 21.212 19.8722C21.24 19.8268 21.2678 19.7814 21.2956 19.7357C21.305 19.72 21.3147 19.7046 21.3243 19.6884C21.4757 19.4402 21.62 19.1886 21.752 18.9272C21.7758 18.88 21.8003 18.8332 21.8248 18.7863C22.1094 18.2286 22.3229 17.6312 22.5079 17.0271C22.5145 17.0058 22.5211 16.9845 22.5277 16.9627C22.7195 16.3337 22.8365 15.6764 22.9154 15.0197C22.9192 14.9889 22.9229 14.9581 22.9267 14.9263C22.9761 14.4903 22.9827 14.0539 22.9818 13.6151C22.9818 13.5355 22.9818 13.4559 22.982 13.3763C22.9823 12.9135 22.967 12.4595 22.9022 12.0015C22.8996 11.9828 22.897 11.9643 22.8945 11.9451C22.8488 11.6162 22.7935 11.2909 22.7198 10.9682C22.713 10.9387 22.713 10.9387 22.7061 10.9086C22.58 10.3654 22.4041 9.83957 22.2019 9.32508C22.1937 9.30402 22.1857 9.28297 22.1772 9.26141C22.0863 9.02726 21.9874 8.80442 21.8686 8.58568C21.83 8.51226 21.7963 8.43883 21.7636 8.36232C21.5941 7.98569 21.3629 7.63782 21.1428 7.29482C21.0955 7.21985 21.0955 7.21985 21.072 7.16851C21.0564 7.16851 21.0409 7.16851 21.0249 7.16851C21.0192 7.15464 21.0136 7.14078 21.0079 7.12666C20.6708 6.44451 20.0002 5.76032 19.4477 5.29434C19.4029 5.25429 19.3582 5.21424 19.3137 5.17393C19.0004 4.89178 18.6652 4.62529 18.3177 4.39577C18.2907 4.37754 18.2907 4.37754 18.2631 4.35906C18.2031 4.31927 18.1428 4.28024 18.0823 4.24173C18.0435 4.21683 18.0435 4.21683 18.0037 4.19167C17.56 3.91234 17.1009 3.67204 16.6228 3.47153C16.6021 3.46254 16.5812 3.45381 16.5597 3.44457C16.2299 3.30465 15.8954 3.20016 15.5527 3.10414C15.5072 3.09053 15.4623 3.07513 15.4176 3.0587C15.3274 3.02635 15.2358 3.00684 15.1426 2.98681C15.1224 2.9827 15.1021 2.97834 15.0812 2.97372C14.3907 2.82764 13.7177 2.74779 13.0143 2.74779C12.9303 2.74779 12.8462 2.74728 12.7622 2.74702C12.4604 2.746 12.1664 2.75652 11.8677 2.80402Z" fill="#FDFCFD"/>
</svg>
